<svg width="72" height="23" viewBox="0 0 72 23" xmlns="http://www.w3.org/2000/svg"><title>sale</title><g fill="none" fill-rule="evenodd"><path fill="#F5A623" d="M0 0h72l-8 12 8 11H0z"/><path d="M13.74 13.768L12.828 16h-1.032l3.48-8.4h.528l3.468 8.4H18.24l-.912-2.232H13.74zm1.8-4.44l-1.464 3.564h2.928L15.54 9.328zM26.736 16h1.068l-1.932-2.988c-.528-.828-.816-1.176-1.26-1.32.36-.168.636-.516 1.128-1.248L27.588 7.6H26.52l-1.62 2.52c-.564.864-.768 1.164-1.632 1.164h-1.236V7.6h-.936V16h.936v-3.828H23.4c.852 0 1.068.312 1.632 1.164L26.736 16zm10.32 1.548v-2.424h-1.14V7.6h-.936v7.524h-4.452V7.6h-.936V16h6.528v1.548h.936zM45.204 16V7.6h-.516l-4.908 6.564V7.6h-.936V16h.528l4.896-6.564V16h.936zm8.196 0h-.936v-2.352h-1.728c-.888.012-1.284.192-1.992 1.284L48.048 16h-1.056l.84-1.284c.516-.804.936-1.2 1.38-1.392-1.272-.372-2.136-1.296-2.136-2.7 0-1.872 1.488-3.024 3.624-3.024h2.7V16zm-.936-7.524h-1.836c-1.452 0-2.664.672-2.664 2.148 0 1.5 1.212 2.148 2.664 2.148h1.836V8.476z" fill="#FFF"/></g></svg>