<svg width="123" height="40" viewBox="0 0 123 40" xmlns="http://www.w3.org/2000/svg"><title>logo</title><g fill="none"><path fill="#1C291F" d="M63.278 30L59 20h2.815l2.19 5.558L66.185 20H69l-4.218 10zM75 27.7V30h-5v-2.3h1.249v-5.414H70V20h5v2.286h-1.249V27.7zm3 2.3V20h2.578v7.7H85V30zm8 0V20h2.578v7.7H93V30zm9.54 0H93l3.848-10h1.357L102 30h-2.54l-.487-1.384h-2.958L95.541 30zm1.28-3.684h1.385l-.689-1.945-.697 1.945zm15.387-5.116l-1.578 1.44a3.192 3.192 0 0 0-2.175-.82c-1.474 0-2.64 1.09-2.64 2.786 0 1.697 1.166 2.773 2.64 2.773a3.19 3.19 0 0 0 1.335-.282v-1.358h-1.335v-1.814h3.745v4.092a5.115 5.115 0 0 1-3.745 1.644 5.058 5.058 0 0 1-5.064-5.053 5.058 5.058 0 0 1 5.064-5.052 5.115 5.115 0 0 1 3.745 1.64m8.888 2.252l-.865 2.278h-3.136v1.54h4.984l-.865 2.278h-6.528v-9.906h7.658l-.865 2.265h-4.384v1.545zM3.405 29.561v-3.267L0 19.656h2.74l1.87 3.649 1.887-3.65h2.74l-3.419 6.64v3.266zm16.177-4.933a5.052 5.052 0 0 1-5.075 5.02 5.052 5.052 0 0 1-5.04-5.055 5.052 5.052 0 0 1 5.057-5.037c1.346 0 2.637.535 3.586 1.487a5.04 5.04 0 0 1 1.472 3.585m-7.702 0c0 1.714 1.166 2.773 2.64 2.773 1.474 0 2.653-1.063 2.653-2.773 0-1.71-1.166-2.79-2.653-2.79s-2.64 1.09-2.64 2.79m9.624 4.933v-9.905h2.409v7.627h4.144v2.278zm12.024-3.197a1.066 1.066 0 0 0-1.035-.638h-.54v3.848h-2.409v-9.918h2.41v3.74h.526c.443.018.852-.235 1.035-.638l1.987-3.102h2.71l-2.427 3.81a3.67 3.67 0 0 1-1.035 1.045c.449.272.812.664 1.048 1.132l2.509 3.905h-2.722l-2.057-3.184zm10.262 0a1.066 1.066 0 0 0-1.034-.638h-.54v3.848h-2.409v-9.918h2.41v3.74h.526c.443.018.852-.235 1.034-.638l1.988-3.102h2.709l-2.427 3.81c-.27.414-.622.77-1.034 1.045.449.271.812.664 1.048 1.132l2.513 3.905h-2.74l-2.043-3.184zm11.103.919v2.278H50.07v-2.278h1.205V21.92H50.07v-2.264h4.823v2.264h-1.205v5.363zM32.658 37.979c-.256-.39-.4-.538-.813-.538h-.248v1.675H30.51V37.44h-.257c-.413 0-.556.143-.813.538l-.735 1.137h-1.209l1.027-1.562c.149-.274.376-.497.652-.642a1.694 1.694 0 0 1-.609-.625l-.961-1.445h1.209l.67 1.015c.256.404.4.538.804.538h.222v-1.553h1.087v1.553h.213c.413 0 .557-.134.813-.538l.657-1.015h1.209l-.952 1.445c-.148.258-.36.474-.618.625.278.143.505.367.652.642l1.027 1.562h-1.2l-.74-1.137zm5.422 1.137v-2.521l-2.19 2.52h-.705v-4.273h1.087v2.52l2.191-2.52h.705v4.274zm2.827 0h-1.156l1.978-4.274h.7l1.979 4.274H43.26l-1.178-2.673zm7.971-2.135a2.172 2.172 0 0 1-2.182 2.143 2.172 2.172 0 0 1-2.166-2.16 2.177 2.177 0 1 1 3.712-1.543c.414.413.643.976.636 1.56m-3.305 0c0 .609.495 1.102 1.105 1.102a1.103 1.103 0 1 0-1.105-1.102m6.954 2.135v-2.521l-2.174 2.52h-.7v-4.273h1.087v2.52l2.174-2.52h.7v4.274h-1.087zm-2.235-5.94h.76a.564.564 0 0 0 .592.546.57.57 0 0 0 .6-.546h.744c0 .74-.602 1.34-1.344 1.34-.742 0-1.344-.6-1.344-1.34h-.008zm9.054 4.803c-.257-.39-.4-.538-.814-.538h-.3v1.675h-1.091v-4.274h1.087v1.553h.265c.4 0 .548-.134.805-.538l.67-1.015h1.208l-.956 1.445a1.698 1.698 0 0 1-.61.625c.277.145.504.368.653.642l1.026 1.562h-1.204l-.74-1.137zm6.531-.998a2.194 2.194 0 0 1-2.197 2.187 2.194 2.194 0 0 1-2.195-2.19c0-1.209.98-2.19 2.192-2.192a2.177 2.177 0 0 1 1.563.635c.415.413.644.976.637 1.56m-3.305 0a1.107 1.107 0 0 0 2.21 0 1.107 1.107 0 0 0-2.21 0m7.562 2.135v-2.521l-1.2 1.375-1.2-1.375v2.52h-1.087v-4.273h.704l1.583 1.831 1.583-1.831h.705v4.274zm5.08 0v-3.22h-1.87v3.22h-1.087v-4.274H76.3v4.274zm2.831 0h-1.153l1.974-4.274h.705l1.979 4.274h-1.148l-1.183-2.673zm7.605-3.181c.171.427.196.899.07 1.341h-2.988a.936.936 0 0 0 1.061.898c.453.004.9-.099 1.305-.3l.574.626a3.17 3.17 0 0 1-1.866.668 2.194 2.194 0 0 1-2.209-2.178 2.194 2.194 0 0 1 2.183-2.204 1.936 1.936 0 0 1 1.883 1.15m-2.874.659h1.961a.658.658 0 0 0-.1-.339.953.953 0 0 0-.87-.477.939.939 0 0 0-.991.82m6.097 1.38c-.257-.39-.405-.538-.814-.538h-.3v1.675h-1.06v-4.274h1.087v1.553h.265c.4 0 .548-.134.804-.538l.666-1.015h1.204l-.957 1.445a1.698 1.698 0 0 1-.608.625c.275.145.502.369.652.642l1.026 1.562h-1.209l-.756-1.137zm6.088-2.399l-.653.698a1.415 1.415 0 0 0-1.035-.434 1.138 1.138 0 0 0 0 2.274c.39.005.766-.152 1.035-.434l.653.703a2.177 2.177 0 0 1-2.408.635 2.17 2.17 0 0 1 0-4.074 2.177 2.177 0 0 1 2.408.636"/><path fill="#7A9255" d="M69.921 13.885v-1.88l3.17.83-3.748-11.117-3.744 11.117 3.166-.833v1.883h-6.823V11.87l3.657.964L61.272 0l-4.323 12.835 3.653-.964v2.014H53.78v-1.883l3.17.833-3.748-11.117-3.744 11.117 3.166-.833v1.883h-6.571v.603h30.401v-.603z"/></g></svg>