<svg width="16" height="13" viewBox="0 0 16 13" xmlns="http://www.w3.org/2000/svg"><title>sofa</title><g fill="#FFF"><path d="M4.372 4.274v3.43h7.483v-3.43c0-.86.7-1.56 1.56-1.56h.935V1.78c0-.86-.7-1.56-1.56-1.56H3.438c-.86 0-1.56.7-1.56 1.56v.935h.936c.86 0 1.559.7 1.559 1.559z"/><path d="M14.661 3.339h-1.247a.937.937 0 0 0-.935.935v3.742c0 .172-.14.311-.312.311H4.06a.312.312 0 0 1-.312-.311V4.274a.937.937 0 0 0-.935-.935H1.566a.937.937 0 0 0-.936.935v6.236c0 .516.42.935.936.935h.312v.936c0 .172.14.312.311.312h2.495c.172 0 .312-.14.312-.312v-.936h6.236v.936c0 .172.14.312.311.312h2.495c.172 0 .312-.14.312-.312v-.936h.311c.516 0 .936-.42.936-.935V4.274a.937.937 0 0 0-.936-.935z"/></g></svg>