<?xml version="1.0" encoding="UTF-8"?>
<svg width="72px" height="23px" viewBox="0 0 72 23" version="1.1" xmlns="http://www.w3.org/2000/svg" xmlns:xlink="http://www.w3.org/1999/xlink">
    <!-- Generator: Sketch 46.2 (44496) - http://www.bohemiancoding.com/sketch -->
    <title>sale</title>
    <desc>Created with Sketch.</desc>
    <defs></defs>
    <g id="New-Version" stroke="none" stroke-width="1" fill="none" fill-rule="evenodd">
        <g id="Select-flat-/-Index" transform="translate(-380.000000, -644.000000)">
            <g id="sale" transform="translate(380.000000, 644.000000)">
                <g>
                    <polygon id="Path-2" fill="#F5A623" points="0 0 72 0 64 12 72 23 0 23"></polygon>
                    <path d="M13.74,13.768 L12.828,16 L11.796,16 L15.276,7.6 L15.804,7.6 L19.272,16 L18.24,16 L17.328,13.768 L13.74,13.768 Z M15.54,9.328 L14.076,12.892 L17.004,12.892 L15.54,9.328 Z M26.736,16 L27.804,16 L25.872,13.012 C25.344,12.184 25.056,11.836 24.612,11.692 C24.972,11.524 25.248,11.176 25.74,10.444 L27.588,7.6 L26.52,7.6 L24.9,10.12 C24.336,10.984 24.132,11.284 23.268,11.284 L22.032,11.284 L22.032,7.6 L21.096,7.6 L21.096,16 L22.032,16 L22.032,12.172 L23.4,12.172 C24.252,12.172 24.468,12.484 25.032,13.336 L26.736,16 Z M37.056,17.548 L37.056,15.124 L35.916,15.124 L35.916,7.6 L34.98,7.6 L34.98,15.124 L30.528,15.124 L30.528,7.6 L29.592,7.6 L29.592,16 L36.12,16 L36.12,17.548 L37.056,17.548 Z M45.204,16 L45.204,7.6 L44.688,7.6 L39.78,14.164 L39.78,7.6 L38.844,7.6 L38.844,16 L39.372,16 L44.268,9.436 L44.268,16 L45.204,16 Z M53.4,16 L52.464,16 L52.464,13.648 L50.736,13.648 C49.848,13.66 49.452,13.84 48.744,14.932 L48.048,16 L46.992,16 L47.832,14.716 C48.348,13.912 48.768,13.516 49.212,13.324 C47.94,12.952 47.076,12.028 47.076,10.624 C47.076,8.752 48.564,7.6 50.7,7.6 L53.4,7.6 L53.4,16 Z M52.464,8.476 L50.628,8.476 C49.176,8.476 47.964,9.148 47.964,10.624 C47.964,12.124 49.176,12.772 50.628,12.772 L52.464,12.772 L52.464,8.476 Z" id="Акция" fill="#FFFFFF"></path>
                </g>
            </g>
        </g>
    </g>
</svg>