<?xml version="1.0" encoding="UTF-8"?>
<svg width="54px" height="24px" viewBox="0 0 54 24" version="1.1" xmlns="http://www.w3.org/2000/svg" xmlns:xlink="http://www.w3.org/1999/xlink">
    <!-- Generator: Sketch 46.2 (44496) - http://www.bohemiancoding.com/sketch -->
    <title>hit</title>
    <desc>Created with Sketch.</desc>
    <defs></defs>
    <g id="New-Version" stroke="none" stroke-width="1" fill="none" fill-rule="evenodd">
        <g id="Select-flat-/-Index" transform="translate(-204.000000, -643.000000)">
            <g id="hit" transform="translate(204.000000, 644.000000)">
                <g id="Group" transform="translate(0.000000, -1.000000)">
                    <polygon id="Path-2" fill="#E95A4E" points="0 0 54 0 46 12 54 24 0 24"></polygon>
                    <path d="M16.948,13.508 L19.444,17 L20.524,17 L17.488,12.716 L20.38,8.6 L19.288,8.6 L16.972,11.864 L14.62,8.6 L13.54,8.6 L16.42,12.668 L13.384,17 L14.464,17 L16.948,13.508 Z M28.684,17 L28.684,8.6 L28.168,8.6 L23.26,15.164 L23.26,8.6 L22.324,8.6 L22.324,17 L22.852,17 L27.748,10.436 L27.748,17 L28.684,17 Z M34.012,9.476 L36.604,9.476 L36.604,8.6 L30.472,8.6 L30.472,9.476 L33.076,9.476 L33.076,17 L34.012,17 L34.012,9.476 Z" id="Хит" fill="#FFFFFF"></path>
                </g>
            </g>
        </g>
    </g>
</svg>