<?xml version="1.0" encoding="UTF-8"?>
<svg width="123px" height="40px" viewBox="0 0 123 40" version="1.1" xmlns="http://www.w3.org/2000/svg" xmlns:xlink="http://www.w3.org/1999/xlink">
    <!-- Generator: Sketch 46.2 (44496) - http://www.bohemiancoding.com/sketch -->
    <title>logo</title>
    <desc>Created with Sketch.</desc>
    <defs></defs>
    <g id="Symbols" stroke="none" stroke-width="1" fill="none" fill-rule="evenodd">
        <g id="Backstage" transform="translate(-657.000000, -45.000000)" fill-rule="nonzero">
            <g transform="translate(50.000000, 45.000000)" id="Header">
                <g>
                    <g id="logo" transform="translate(607.000000, 0.000000)">
                        <polygon id="Shape" fill="#1C291F" points="63.2778793 30 59 20 61.8153565 20 64.0045704 25.5584757 66.1846435 20 69 20 64.7815356 30"></polygon>
                        <polygon id="Shape" fill="#1C291F" points="75 27.7003942 75 30 70 30 70 27.7003942 71.2488729 27.7003942 71.2488729 22.2864652 70 22.2864652 70 20 75 20 75 22.2864652 73.7511271 22.2864652 73.7511271 27.7003942"></polygon>
                        <polygon id="Shape" fill="#1C291F" points="78 30 78 20 80.5779695 20 80.5779695 27.7003942 85 27.7003942 85 30"></polygon>
                        <polygon id="Shape" fill="#1C291F" points="86 30 86 20 88.5779695 20 88.5779695 27.7003942 93 27.7003942 93 30"></polygon>
                        <path d="M95.5407883,30 L93,30 L96.8483043,20 L98.2053162,20 L102,30 L99.4592117,30 L98.9725023,28.6158563 L96.0151237,28.6158563 L95.5407883,30 Z M96.8194317,26.3162505 L98.2053162,26.3162505 L97.5164986,24.3714411 L96.8194317,26.3162505 Z" id="Shape" fill="#1C291F"></path>
                        <g id="Group">
                            <path d="M112.207281,21.2002153 L110.628735,22.6407539 C110.033255,22.1040664 109.256812,21.8112219 108.454428,21.8206883 C106.980248,21.8206883 105.814819,22.9097701 105.814819,24.6063081 C105.814819,26.302846 106.980248,27.3789109 108.454428,27.3789109 C108.914637,27.3822995 109.37011,27.2860777 109.789452,27.0968778 L109.789452,25.7387796 L108.454428,25.7387796 L108.454428,23.9250895 L112.198584,23.9250895 L112.198584,28.0167397 C111.234505,29.0612274 109.877537,29.6572207 108.454428,29.66121 C105.657679,29.66121 103.390467,27.3990246 103.390467,24.6084775 C103.390467,21.8179305 105.657679,19.5557451 108.454428,19.5557451 C109.876876,19.5586163 111.233741,20.1529925 112.198584,21.1958764" id="Shape" fill="#1C291F"></path>
                            <polygon id="Shape" fill="#1C291F" points="121.087151 23.4478026 120.221777 25.7257627 117.086426 25.7257627 117.086426 27.2660977 122.069937 27.2660977 121.204563 29.5440578 114.677294 29.5440578 114.677294 19.6381855 122.335203 19.6381855 121.469829 21.9031287 117.086426 21.9031287 117.086426 23.4478026"></polygon>
                            <polygon id="Shape" fill="#1C291F" points="3.40496459 29.5614136 3.40496459 26.294168 0 19.6555414 2.73962668 19.6555414 4.6095306 23.3046166 6.49682898 19.6555414 9.23645566 19.6555414 5.81844523 26.294168 5.81844523 29.5614136"></polygon>
                            <path d="M19.5818078,24.6280029 C19.5674154,27.4115213 17.2967899,29.6577247 14.5070653,29.6481633 C11.7173406,29.6386019 9.46223414,27.3768873 9.4670069,24.5933359 C9.47177966,21.8097845 11.7346289,19.5557821 14.52437,19.5557451 C15.8702189,19.5557272 17.1605679,20.0909536 18.1097751,21.0429423 C19.0589823,21.994931 19.5887512,23.2851561 19.5818078,24.6280029 M11.8804128,24.6280029 C11.8804128,26.3418967 13.0458413,27.4006058 14.5200214,27.4006058 C15.9942015,27.4006058 17.1726758,26.3375577 17.1726758,24.6280029 C17.1726758,22.9184481 16.0072473,21.8380442 14.5200214,21.8380442 C13.0327955,21.8380442 11.8804128,22.927126 11.8804128,24.6280029" id="Shape" fill="#1C291F"></path>
                            <polygon id="Shape" fill="#1C291F" points="21.5038951 29.5614136 21.5038951 19.6555414 23.9130272 19.6555414 23.9130272 27.2834535 28.0572561 27.2834535 28.0572561 29.5614136"></polygon>
                            <path d="M33.5278122,26.3635916 C33.3503315,25.9560482 32.9375284,25.7016469 32.4928421,25.7257627 L31.953614,25.7257627 L31.953614,29.5744306 L29.544482,29.5744306 L29.544482,19.6555414 L31.953614,19.6555414 L31.953614,23.395735 L32.4797963,23.395735 C32.9228711,23.4136307 33.3324329,23.161227 33.5147664,22.7579061 L35.5020829,19.6555414 L38.2112693,19.6555414 L35.7847428,23.4651585 C35.5140208,23.879847 35.1619592,24.2355559 34.7497727,24.5108507 C35.1987645,24.7826518 35.5619664,25.1751228 35.7977886,25.6433223 L38.3069388,29.5483967 L35.5847065,29.5483967 L33.5278122,26.3635916 Z" id="Shape" fill="#1C291F"></path>
                            <path d="M43.7905407,26.3635916 C43.6130601,25.9560482 43.2002569,25.7016469 42.7555707,25.7257627 L42.2163426,25.7257627 L42.2163426,29.5744306 L39.8072105,29.5744306 L39.8072105,19.6555414 L42.2163426,19.6555414 L42.2163426,23.395735 L42.7425248,23.395735 C43.1855997,23.4136307 43.5951614,23.161227 43.7774949,22.7579061 L45.7648114,19.6555414 L48.4739978,19.6555414 L46.0474713,23.4651585 C45.7769378,23.8799985 45.4248418,24.235742 45.0125012,24.5108507 C45.4616433,24.7824683 45.8248902,25.174988 46.0605171,25.6433223 L48.5740159,29.5483967 L45.8343892,29.5483967 L43.7905407,26.3635916 Z" id="Shape" fill="#1C291F"></path>
                            <polygon id="Shape" fill="#1C291F" points="54.8925517 27.2834535 54.8925517 29.5614136 50.069939 29.5614136 50.069939 27.2834535 51.2745051 27.2834535 51.2745051 21.9204846 50.069939 21.9204846 50.069939 19.6555414 54.8925517 19.6555414 54.8925517 21.9204846 53.6879857 21.9204846 53.6879857 27.2834535"></polygon>
                            <path d="M32.6580895,37.9790186 C32.4015213,37.5885111 32.258017,37.4409861 31.8448987,37.4409861 L31.5970277,37.4409861 L31.5970277,39.1158291 L30.5098743,39.1158291 L30.5098743,37.4409861 L30.2533061,37.4409861 C29.8401877,37.4409861 29.6966835,37.5841722 29.4401153,37.9790186 L28.7051995,39.1158291 L27.4962849,39.1158291 L28.5225578,37.5537994 C28.6719863,37.280412 28.898874,37.0570459 29.1748498,36.9116316 C28.9207271,36.7599633 28.7108319,36.5445498 28.5660439,36.2868196 L27.6050003,34.8419421 L28.8139149,34.8419421 L29.4836014,35.8572615 C29.7401696,36.2607858 29.8836739,36.3952939 30.288095,36.3952939 L30.5098743,36.3952939 L30.5098743,34.8419421 L31.5970277,34.8419421 L31.5970277,36.3952939 L31.8101098,36.3952939 C32.2232281,36.3952939 32.3667323,36.2607858 32.6233006,35.8572615 L33.2799412,34.8419421 L34.4888559,34.8419421 L33.5365095,36.2868196 C33.3889889,36.5453957 33.1760685,36.7608363 32.9190063,36.9116316 C33.1967275,37.054657 33.4242404,37.2786387 33.5712984,37.5537994 L34.5975712,39.1158291 L33.3973538,39.1158291 L32.6580895,37.9790186 Z" id="Shape" fill="#1C291F"></path>
                            <polygon id="Shape" fill="#1C291F" points="38.0808109 39.1158291 38.0808109 36.5948866 35.8891095 39.1158291 35.1846341 39.1158291 35.1846341 34.8419421 36.2717875 34.8419421 36.2717875 37.3628846 38.4634889 34.8419421 39.1679643 34.8419421 39.1679643 39.1158291"></polygon>
                            <polygon id="Shape" fill="#1C291F" points="40.9074098 39.1158291 39.7506785 39.1158291 41.7292978 34.8419421 42.4294246 34.8419421 44.4080439 39.1158291 43.2600099 39.1158291 42.0815355 36.4430226"></polygon>
                            <path d="M48.8784189,36.9810551 C48.8640038,38.1723287 47.8895184,39.1291259 46.6955202,39.1243314 C45.501522,39.1195369 44.5347863,38.1549447 44.5299812,36.963594 C44.525176,35.7722433 45.4840995,34.7999186 46.6780203,34.7855355 C47.2637416,34.7784793 47.8275399,35.0075257 48.2417376,35.420805 C48.6559353,35.8340843 48.8854907,36.3966325 48.8784189,36.9810551 M45.5734724,36.9810551 C45.5734724,37.5897275 46.0679953,38.0831539 46.6780203,38.0831539 C47.2880453,38.0831539 47.7825682,37.5897275 47.7825682,36.9810551 C47.7825682,36.3723828 47.2880453,35.8789563 46.6780203,35.8789563 C46.0679953,35.8789563 45.5734724,36.3723828 45.5734724,36.9810551" id="Shape" fill="#1C291F"></path>
                            <path d="M52.5269058,39.1158291 L52.5269058,36.5948866 L50.3525989,39.1158291 L49.6524721,39.1158291 L49.6524721,34.8419421 L50.7396256,34.8419421 L50.7396256,37.3628846 L52.9139324,34.8419421 L53.6140593,34.8419421 L53.6140593,39.1158291 L52.5269058,39.1158291 Z M50.2917183,33.175777 L51.0527258,33.175777 C51.0572254,33.3269647 51.1223911,33.4700151 51.233592,33.5728111 C51.344793,33.675607 51.4927114,33.729535 51.6441372,33.7224874 C51.7967194,33.7307373 51.9462263,33.6774778 52.0590713,33.5746739 C52.1719163,33.4718699 52.2386375,33.3281414 52.2442459,33.175777 L52.9878589,33.175777 C52.9878589,33.9162485 52.3862542,34.5165192 51.6441372,34.5165192 C50.9020202,34.5165192 50.3004156,33.9162485 50.3004156,33.175777 L50.2917183,33.175777 Z" id="Shape" fill="#1C291F"></path>
                            <path d="M59.3455322,37.9790186 C59.088964,37.5885111 58.9454598,37.4409861 58.5323415,37.4409861 L58.2322871,37.4409861 L58.2322871,39.1158291 L57.140785,39.1158291 L57.140785,34.8419421 L58.2279385,34.8419421 L58.2279385,36.3952939 L58.4932039,36.3952939 C58.8932764,36.3952939 59.0411293,36.2607858 59.2976975,35.8572615 L59.967384,34.8419421 L61.1762986,34.8419421 L60.2196036,36.2868196 C60.0746525,36.5444284 59.8647941,36.7598041 59.6107977,36.9116316 C59.8867735,37.0570459 60.1136612,37.280412 60.2630897,37.5537994 L61.2893626,39.1158291 L60.0847966,39.1158291 L59.3455322,37.9790186 Z" id="Shape" fill="#1C291F"></path>
                            <path d="M65.8771501,36.9810551 C65.8747483,38.1900778 64.891365,39.1686908 63.6796535,39.167892 C62.467942,39.1670932 61.4858556,38.1871844 61.485055,36.9781596 C61.4842544,35.7691348 62.4650422,34.787932 63.6767516,34.7855355 C64.2624729,34.7784793 64.8262711,35.0075257 65.2404688,35.420805 C65.6546665,35.8340843 65.884222,36.3966325 65.8771501,36.9810551 M62.5722037,36.9810551 C62.5722036,37.3747971 62.7827292,37.7386298 63.1244775,37.9355008 C63.4662259,38.1323718 63.8872772,38.1323718 64.2290256,37.9355008 C64.5707739,37.7386298 64.7812995,37.3747971 64.7812994,36.9810551 C64.7812995,36.5873131 64.5707739,36.2234804 64.2290256,36.0266094 C63.8872772,35.8297384 63.4662259,35.8297384 63.1244775,36.0266094 C62.7827292,36.2234804 62.5722036,36.5873131 62.5722037,36.9810551" id="Shape" fill="#1C291F"></path>
                            <polygon id="Shape" fill="#1C291F" points="70.134443 39.1158291 70.134443 36.5948866 68.9342256 37.9703406 67.7340082 36.5948866 67.7340082 39.1158291 66.6468548 39.1158291 66.6468548 34.8419421 67.3513302 34.8419421 68.9342256 36.6729881 70.517121 34.8419421 71.2215965 34.8419421 71.2215965 39.1158291"></polygon>
                            <polygon id="Shape" fill="#1C291F" points="75.2136239 39.1158291 75.2136239 35.8963122 73.34372 35.8963122 73.34372 39.1158291 72.2565665 39.1158291 72.2565665 34.8419421 76.3007773 34.8419421 76.3007773 39.1158291"></polygon>
                            <polygon id="Shape" fill="#1C291F" points="78.0445715 39.1158291 76.8921888 39.1158291 78.8664595 34.8419421 79.5709349 34.8419421 81.5495542 39.1158291 80.4015201 39.1158291 79.2186972 36.4430226"></polygon>
                            <path d="M85.650297,35.9353629 C85.8214989,36.3622914 85.8459688,36.8338169 85.7198748,37.2761052 L82.7323771,37.2761052 C82.741164,37.5403786 82.8614245,37.7886523 83.0635067,37.9597107 C83.2655888,38.1307691 83.5306876,38.2086942 83.7934389,38.1742723 C84.245783,38.1776587 84.6926151,38.0751152 85.098023,37.8748833 L85.67204,38.4996952 C85.1379033,38.9159348 84.483989,39.1501528 83.8064847,39.1678968 C82.5936398,39.1750858 81.604594,38.1998887 81.597389,36.989733 C81.5901839,35.7795774 82.5675482,34.7927245 83.780393,34.7855355 C84.5870807,34.7389694 85.3378454,35.1974256 85.6633428,35.9353629 M82.7889091,36.5948866 L84.7501339,36.5948866 C84.7482194,36.4751034 84.7136425,36.3581027 84.6501158,36.2564468 C84.4727883,35.9472673 84.137045,35.763018 83.780393,35.77916 C83.2845435,35.7478543 82.8500226,36.1072506 82.7889091,36.5992256" id="Shape" fill="#1C291F"></path>
                            <path d="M88.8856656,37.9790186 C88.6290974,37.5885111 88.4812445,37.4409861 88.0724748,37.4409861 L87.7724205,37.4409861 L87.7724205,39.1158291 L86.7113587,39.1158291 L86.7113587,34.8419421 L87.7985122,34.8419421 L87.7985122,36.3952939 L88.0637776,36.3952939 C88.4638501,36.3952939 88.611703,36.2607858 88.8682712,35.8572615 L89.5336091,34.8419421 L90.7381751,34.8419421 L89.7814801,36.2868196 C89.636529,36.5444284 89.4266706,36.7598041 89.1726741,36.9116316 C89.4484964,37.057255 89.6753302,37.2805681 89.8249662,37.5537994 L90.851239,39.1158291 L89.6423244,39.1158291 L88.8856656,37.9790186 Z" id="Shape" fill="#1C291F"></path>
                            <path d="M94.9737249,35.5795673 L94.3214328,36.2781417 C94.0512785,35.997136 93.6766956,35.8400972 93.2864628,35.8442445 C92.6572244,35.8442445 92.147126,36.353212 92.147126,36.9810551 C92.147126,37.6088982 92.6572244,38.1178657 93.2864628,38.1178657 C93.6769005,38.1230598 94.0518844,37.9658529 94.3214328,37.6839685 L94.9737249,38.3868819 C94.3843134,39.081808 93.4227682,39.3356449 92.5660484,39.0224808 C91.7093286,38.7093168 91.1396882,37.8957727 91.1396882,36.9853941 C91.1396882,36.0750154 91.7093286,35.2614713 92.5660484,34.9483073 C93.4227682,34.6351433 94.3843134,34.8889802 94.9737249,35.5839062" id="Shape" fill="#1C291F"></path>
                            <polygon id="Shape" fill="#7A9255" points="69.9213609 13.8847092 69.9213609 12.0059345 73.0915004 12.834678 69.3429953 1.71823276 65.5988388 12.834678 68.7646297 12.0015955 68.7646297 13.8847092 61.9416547 13.8847092 61.9416547 11.8714263 65.5988388 12.834678 61.2719681 0 56.949446 12.834678 60.6022816 11.8714263 60.6022816 13.8847092 53.7793066 13.8847092 53.7793066 12.0015955 56.949446 12.834678 53.200941 1.71823276 49.4567845 12.834678 52.6225753 12.0015955 52.6225753 13.8847092 46.0518199 13.8847092 46.0518199 14.4878262 76.4529788 14.4878262 76.4529788 13.8847092"></polygon>
                        </g>
                    </g>
                </g>
            </g>
        </g>
    </g>
</svg>