<?xml version="1.0" encoding="UTF-8"?>
<svg width="16px" height="13px" viewBox="0 0 16 13" version="1.1" xmlns="http://www.w3.org/2000/svg" xmlns:xlink="http://www.w3.org/1999/xlink">
    <!-- Generator: Sketch 46.2 (44496) - http://www.bohemiancoding.com/sketch -->
    <title>sofa</title>
    <desc>Created with Sketch.</desc>
    <defs></defs>
    <g id="New-Version" stroke="none" stroke-width="1" fill="none" fill-rule="evenodd">
        <g id="Flats-/-Index" transform="translate(-252.000000, -349.000000)" fill-rule="nonzero" fill="#FFFFFF">
            <g id="sofa" transform="translate(252.630316, 349.201022)">
                <path d="M3.74161406,4.07289306 L3.74161406,7.5026962 L11.2248422,7.5026962 L11.2248422,4.07289306 C11.2248422,3.21357877 11.924524,2.51389695 12.7838383,2.51389695 L13.7192418,2.51389695 L13.7192418,1.57849343 C13.7192418,0.719179146 13.01956,0.019497317 12.1602457,0.019497317 L2.80621054,0.019497317 C1.94689626,0.019497317 1.24721443,0.719179146 1.24721443,1.57849343 L1.24721443,2.51389695 L2.18261794,2.51389695 C3.04193223,2.51389695 3.74161406,3.21357877 3.74161406,4.07289306 Z" id="Shape"></path>
                <path d="M14.0310527,3.13748954 L12.7838383,3.13748954 C12.2681094,3.13748954 11.8484348,3.55716418 11.8484348,4.07289306 L11.8484348,7.81450712 C11.8484348,7.98662136 11.7087381,8.12631803 11.5366239,8.12631803 L3.42980314,8.12631803 C3.2576889,8.12631803 3.11799223,7.98662136 3.11799223,7.81450712 L3.11799223,4.07289306 C3.11799223,3.55716418 2.69831759,3.13748954 2.18258871,3.13748954 L0.935403515,3.13748954 C0.419674633,3.13748954 0,3.55716418 0,4.07289306 L0,10.3089067 C0,10.8246356 0.419674633,11.2443103 0.935403515,11.2443103 L1.24721443,11.2443103 L1.24721443,12.1797138 C1.24721443,12.351828 1.3869111,12.4915247 1.55902535,12.4915247 L4.05342497,12.4915247 C4.22553922,12.4915247 4.36523589,12.351828 4.36523589,12.1797138 L4.36523589,11.2443103 L10.6012496,11.2443103 L10.6012496,12.1797138 C10.6012496,12.351828 10.7409462,12.4915247 10.9130605,12.4915247 L13.4074601,12.4915247 C13.5795744,12.4915247 13.719271,12.351828 13.719271,12.1797138 L13.719271,11.2443103 L14.0310527,11.2443103 C14.5467816,11.2443103 14.9664562,10.8246356 14.9664562,10.3089067 L14.9664562,4.07289306 C14.9664562,3.55719341 14.5467816,3.13748954 14.0310527,3.13748954 Z" id="Shape"></path>
            </g>
        </g>
    </g>
</svg>