<?xml version="1.0" encoding="UTF-8"?>
<svg width="31px" height="31px" viewBox="0 0 31 31" version="1.1" xmlns="http://www.w3.org/2000/svg" xmlns:xlink="http://www.w3.org/1999/xlink">
    <!-- Generator: Sketch 46.2 (44496) - http://www.bohemiancoding.com/sketch -->
    <title>building</title>
    <desc>Created with Sketch.</desc>
    <defs></defs>
    <g id="New-Version" stroke="none" stroke-width="1" fill="none" fill-rule="evenodd" opacity="0.300000012">
        <g id="Numbers-/-Index" transform="translate(-745.000000, -687.000000)" fill-rule="nonzero" fill="#000000">
            <g id="building" transform="translate(745.000000, 687.082031)">
                <path d="M21.7245683,28.2925065 L7.57834467,28.2925065 C7.29948527,28.2925065 7.07314143,28.5188504 7.07314143,28.7977098 L7.07314143,29.8081754 C7.07314143,30.0870348 7.29948527,30.3133787 7.57834467,30.3133787 C7.85720407,30.3133787 8.08354792,30.0870348 8.08354792,29.8081754 L8.08354792,29.3029722 L21.7245683,29.3029722 C22.0034277,29.3029722 22.2297716,29.0766284 22.2297716,28.797769 C22.2297716,28.5189096 22.0034869,28.2925065 21.7245683,28.2925065 Z" id="Shape"></path>
                <path d="M11.1148858,12.6305547 C11.1148858,12.9094141 11.3412296,13.135758 11.620089,13.135758 L13.6410204,13.135758 C13.9198798,13.135758 14.1462237,12.9094141 14.1462237,12.6305547 L14.1462237,9.59921685 C14.1462237,9.32035745 13.9198798,9.09401361 13.6410204,9.09401361 L11.6201482,9.09401361 C11.3412888,9.09401361 11.114945,9.32035745 11.114945,9.59921685 L11.114945,12.6305547 L11.1148858,12.6305547 Z M12.1253515,10.1044793 L13.1358172,10.1044793 L13.1358172,12.1253515 L12.1253515,12.1253515 L12.1253515,10.1044793 Z" id="Shape"></path>
                <path d="M6.56787898,6.06267574 L0.505203243,6.06267574 C0.226343841,6.06267574 0,6.28901958 0,6.56787898 L0,16.6723583 C0,16.9512177 0.226343841,17.1775615 0.505203243,17.1775615 C0.784062645,17.1775615 1.01040649,16.9512177 1.01040649,16.6723583 L1.01040649,7.07314143 L6.56787898,7.07314143 C6.84673838,7.07314143 7.07308222,6.84679759 7.07308222,6.56793819 C7.07308222,6.28907879 6.84679759,6.06267574 6.56787898,6.06267574 Z" id="Shape"></path>
                <path d="M24.250703,24.7559062 C24.250703,25.0347656 24.4770468,25.2611094 24.7559062,25.2611094 L26.7767784,25.2611094 C27.0556378,25.2611094 27.2819816,25.0347656 27.2819816,24.7559062 L27.2819816,21.7245683 C27.2819816,21.4457089 27.0556378,21.2193651 26.7767784,21.2193651 L24.7559062,21.2193651 C24.4770468,21.2193651 24.250703,21.4457089 24.250703,21.7245683 L24.250703,24.7559062 Z M25.2611686,22.2298308 L26.2716343,22.2298308 L26.2716343,24.250703 L25.2611686,24.250703 L25.2611686,22.2298308 Z" id="Shape"></path>
                <path d="M2.52613463,18.1880272 C0.0287740274,18.1880272 0,24.6902469 0,24.7559062 C0,25.9760197 0.86949664,26.9960767 2.02087218,27.2310054 L2.02087218,29.8081754 C2.02087218,30.0870348 2.24721602,30.3133787 2.52607542,30.3133787 C2.80493482,30.3133787 3.03127866,30.0870348 3.03127866,29.8081754 L3.03127866,27.2310054 C4.1826542,26.9960767 5.05215084,25.9760197 5.05215084,24.7559062 C5.05221005,24.6902469 5.02343602,18.1880272 2.52613463,18.1880272 Z M2.52613463,26.2715751 C1.69050371,26.2715751 1.01046569,25.5915371 1.01046569,24.7559062 C1.01046569,22.2388893 1.68647772,19.1984337 2.52613463,19.1984337 C3.36579153,19.1984337 4.04180356,22.2388893 4.04180356,24.7559062 C4.04180356,25.5915371 3.36176554,26.2715751 2.52613463,26.2715751 Z" id="Shape"></path>
                <path d="M5.5574725,15.1566893 L3.53654111,15.1566893 C3.25768171,15.1566893 3.03133787,15.3830332 3.03133787,15.6618926 L3.03133787,16.6723583 C3.03133787,16.9512177 3.25768171,17.1775615 3.53654111,17.1775615 C3.81540051,17.1775615 4.04174435,16.9512177 4.04174435,16.6723583 L4.04174435,16.167155 L5.05221005,16.167155 L5.05221005,18.6932897 C5.05221005,18.9721491 5.27855389,19.1984929 5.55741329,19.1984929 C5.83627269,19.1984929 6.06261653,18.9721491 6.06261653,18.6932897 L6.06261653,15.6619518 C6.06267574,15.3830332 5.8363319,15.1566893 5.5574725,15.1566893 Z" id="Shape"></path>
                <path d="M24.7559062,13.1358172 L26.7767784,13.1358172 C27.0556378,13.1358172 27.2819816,12.9094733 27.2819816,12.6306139 L27.2819816,9.59927606 C27.2819816,9.32041665 27.0556378,9.09407281 26.7767784,9.09407281 L24.7559062,9.09407281 C24.4770468,9.09407281 24.250703,9.32041665 24.250703,9.59927606 L24.250703,12.6306139 C24.250703,12.9094733 24.4770468,13.1358172 24.7559062,13.1358172 Z M25.2611686,10.1044793 L26.2716343,10.1044793 L26.2716343,12.1253515 L25.2611686,12.1253515 L25.2611686,10.1044793 Z" id="Shape"></path>
                <path d="M5.5574725,9.09401361 L3.53654111,9.09401361 C3.25768171,9.09401361 3.03133787,9.32035745 3.03133787,9.59921685 L3.03133787,12.6305547 C3.03133787,12.9094141 3.25768171,13.135758 3.53654111,13.135758 L5.55741329,13.135758 C5.83627269,13.135758 6.06261653,12.9094141 6.06261653,12.6305547 L6.06261653,9.59921685 C6.06267574,9.32035745 5.8363319,9.09401361 5.5574725,9.09401361 Z M5.05221005,12.1253515 L4.04180356,12.1253515 L4.04180356,10.1044793 L5.05226925,10.1044793 L5.05226925,12.1253515 L5.05221005,12.1253515 Z" id="Shape"></path>
                <path d="M16.167155,12.6305547 C16.167155,12.9094141 16.3934989,13.135758 16.6723583,13.135758 L18.6932305,13.135758 C18.9720899,13.135758 19.1984337,12.9094141 19.1984337,12.6305547 L19.1984337,9.59921685 C19.1984337,9.32035745 18.9720899,9.09401361 18.6932305,9.09401361 L16.6723583,9.09401361 C16.3934989,9.09401361 16.167155,9.32035745 16.167155,9.59921685 L16.167155,12.6305547 Z M17.1775615,10.1044793 L18.1880272,10.1044793 L18.1880272,12.1253515 L17.1775615,12.1253515 L17.1775615,10.1044793 Z" id="Shape"></path>
                <path d="M29.8081754,6.06267574 L23.7454997,6.06267574 C23.4666403,6.06267574 23.2402965,6.28901958 23.2402965,6.56787898 C23.2402965,6.84673838 23.4666403,7.07308222 23.7454997,7.07308222 L29.3029722,7.07308222 L29.3029722,27.374994 C29.1443598,27.3183932 28.9760969,27.2820408 28.797769,27.2820408 C28.7103812,27.2820408 28.623467,27.2896192 28.5380922,27.3047759 C28.1894884,26.6767797 27.5261464,26.2715751 26.7768968,26.2715751 C26.0276472,26.2715751 25.3643052,26.6767797 25.0157013,27.3047759 C24.9303265,27.2896192 24.8434124,27.2820408 24.7560246,27.2820408 C23.9203937,27.2820408 23.2403557,27.9620788 23.2403557,28.7977098 C23.2403557,29.6333407 23.9203937,30.3133787 24.7560246,30.3133787 L28.7977098,30.3133787 C29.6333407,30.3133787 30.3133787,29.6333407 30.3133787,28.7977098 L30.3133787,6.56787898 C30.3133787,6.28901958 30.0870348,6.06267574 29.8081754,6.06267574 Z M28.7977098,29.302913 L24.7559062,29.302913 C24.4775204,29.302913 24.250703,29.0760955 24.250703,28.7977098 C24.250703,28.519324 24.4775204,28.2925065 24.7559062,28.2925065 C24.8528853,28.2925065 24.944832,28.320274 25.0297331,28.3748618 C25.1681563,28.4637889 25.3409781,28.4799521 25.4935515,28.4183189 C25.6461249,28.3566856 25.7587935,28.2243014 25.7956788,28.0641497 C25.9023084,27.6038836 26.3059737,27.2820408 26.7768376,27.2820408 C27.2477014,27.2820408 27.6513667,27.6038836 27.7579964,28.0641497 C27.7948816,28.2243014 27.9075503,28.3566856 28.0601237,28.4183189 C28.2122234,28.4799521 28.3854596,28.4637889 28.5239421,28.3748618 C28.8528304,28.1626682 29.3029722,28.4223449 29.3029722,28.7977098 C29.302913,29.0760955 29.0760955,29.302913 28.7977098,29.302913 Z" id="Shape"></path>
                <path d="M16.6723583,7.07314143 L18.6932305,7.07314143 C18.9720899,7.07314143 19.1984337,6.84679759 19.1984337,6.56793819 L19.1984337,3.53660032 C19.1984337,3.25774092 18.9720899,3.03139707 18.6932305,3.03139707 L16.6723583,3.03139707 C16.3934989,3.03139707 16.167155,3.25774092 16.167155,3.53660032 L16.167155,6.56793819 C16.167155,6.84679759 16.3934989,7.07314143 16.6723583,7.07314143 Z M17.1775615,4.04180356 L18.1880272,4.04180356 L18.1880272,6.06267574 L17.1775615,6.06267574 L17.1775615,4.04180356 Z" id="Shape"></path>
                <path d="M16.167155,18.6932305 C16.167155,18.9720899 16.3934989,19.1984337 16.6723583,19.1984337 L18.6932305,19.1984337 C18.9720899,19.1984337 19.1984337,18.9720899 19.1984337,18.6932305 L19.1984337,15.6618926 C19.1984337,15.3830332 18.9720899,15.1566893 18.6932305,15.1566893 L16.6723583,15.1566893 C16.3934989,15.1566893 16.167155,15.3830332 16.167155,15.6618926 L16.167155,18.6932305 Z M17.1775615,16.167155 L18.1880272,16.167155 L18.1880272,18.1880272 L17.1775615,18.1880272 L17.1775615,16.167155 Z" id="Shape"></path>
                <path d="M11.6201482,7.07314143 L13.6410204,7.07314143 C13.9198798,7.07314143 14.1462237,6.84679759 14.1462237,6.56793819 L14.1462237,3.53660032 C14.1462237,3.25774092 13.9198798,3.03139707 13.6410204,3.03139707 L11.6201482,3.03139707 C11.3412888,3.03139707 11.114945,3.25774092 11.114945,3.53660032 L11.114945,6.56793819 C11.1148858,6.84679759 11.3412296,7.07314143 11.6201482,7.07314143 Z M12.1253515,4.04180356 L13.1358172,4.04180356 L13.1358172,6.06267574 L12.1253515,6.06267574 L12.1253515,4.04180356 Z" id="Shape"></path>
                <path d="M14.7979613,24.3972374 C14.7070212,24.49321 14.6514269,24.6245877 14.6514269,24.7559654 C14.6514269,24.8873431 14.7070212,25.0186616 14.7979613,25.1146935 C14.8939339,25.2056336 15.0253116,25.2612278 15.1566893,25.2612278 C15.2880671,25.2612278 15.4193856,25.2056336 15.5154174,25.1146935 C15.6063575,25.0187208 15.6619518,24.8873431 15.6619518,24.7559654 C15.6619518,24.6245877 15.6063575,24.4932692 15.5154174,24.3972374 C15.3234129,24.2102654 14.9899658,24.2102654 14.7979613,24.3972374 Z" id="Shape"></path>
                <path d="M11.1148858,18.6932305 C11.1148858,18.9720899 11.3412296,19.1984337 11.620089,19.1984337 L13.6410204,19.1984337 C13.9198798,19.1984337 14.1462237,18.9720899 14.1462237,18.6932305 L14.1462237,15.6618926 C14.1462237,15.3830332 13.9198798,15.1566893 13.6410204,15.1566893 L11.6201482,15.1566893 C11.3412888,15.1566893 11.114945,15.3830332 11.114945,15.6618926 L11.114945,18.6932305 L11.1148858,18.6932305 Z M12.1253515,16.167155 L13.1358172,16.167155 L13.1358172,18.1880272 L12.1253515,18.1880272 L12.1253515,16.167155 Z" id="Shape"></path>
                <path d="M10.1044793,21.7245683 C10.1044793,22.0034277 10.3308231,22.2297716 10.6096825,22.2297716 L12.1253515,22.2297716 L12.1253515,26.7767784 C12.1253515,27.0556378 12.3516953,27.2819816 12.6305547,27.2819816 C12.9094141,27.2819816 13.135758,27.0556378 13.135758,26.7767784 L13.135758,22.2297716 L17.1775615,22.2297716 L17.1775615,26.7767784 C17.1775615,27.0556378 17.4039054,27.2819816 17.6827648,27.2819816 C17.9616242,27.2819816 18.187968,27.0556378 18.187968,26.7767784 L18.187968,22.2297716 L19.7036369,22.2297716 C19.9824963,22.2297716 20.2088402,22.0034277 20.2088402,21.7245683 C20.2088402,21.4457089 19.9824963,21.2193651 19.7036369,21.2193651 L10.6096825,21.2193651 C10.3308231,21.2193651 10.1044793,21.4457089 10.1044793,21.7245683 Z" id="Shape"></path>
                <path d="M24.250703,18.6932305 C24.250703,18.9720899 24.4770468,19.1984337 24.7559062,19.1984337 L26.7767784,19.1984337 C27.0556378,19.1984337 27.2819816,18.9720899 27.2819816,18.6932305 L27.2819816,15.6618926 C27.2819816,15.3830332 27.0556378,15.1566893 26.7767784,15.1566893 L24.7559062,15.1566893 C24.4770468,15.1566893 24.250703,15.3830332 24.250703,15.6618926 L24.250703,18.6932305 Z M25.2611686,16.167155 L26.2716343,16.167155 L26.2716343,18.1880272 L25.2611686,18.1880272 L25.2611686,16.167155 Z" id="Shape"></path>
                <path d="M21.7245683,0 L8.58881036,0 C8.30995096,0 8.08360712,0.226343841 8.08360712,0.505203243 L8.08360712,26.7767784 C8.08360712,27.0556378 8.30995096,27.2819816 8.58881036,27.2819816 C8.86766977,27.2819816 9.09401361,27.0556378 9.09401361,26.7767784 L9.09401361,1.01040649 L21.2193651,1.01040649 L21.2193651,26.7767784 C21.2193651,27.0556378 21.4457089,27.2819816 21.7245683,27.2819816 C22.0034277,27.2819816 22.2297716,27.0556378 22.2297716,26.7767784 L22.2297716,0.505203243 C22.2298308,0.226343841 22.0034869,0 21.7245683,0 Z" id="Shape"></path>
            </g>
        </g>
    </g>
</svg>