<?xml version="1.0" encoding="UTF-8"?>
<svg width="43px" height="22px" viewBox="0 0 43 22" version="1.1" xmlns="http://www.w3.org/2000/svg" xmlns:xlink="http://www.w3.org/1999/xlink">
    <!-- Generator: Sketch 46.2 (44496) - http://www.bohemiancoding.com/sketch -->
    <title>car</title>
    <desc>Created with Sketch.</desc>
    <defs></defs>
    <g id="New-Version" stroke="none" stroke-width="1" fill="none" fill-rule="evenodd" opacity="0.300000012">
        <g id="Numbers-/-Index" transform="translate(-490.000000, -353.000000)" fill-rule="nonzero" fill="#000000">
            <g id="car" transform="translate(490.000000, 353.110844)">
                <g id="Group" transform="translate(6.437987, 12.875974)">
                    <path d="M22.4531235,5.32164006 L7.73588518,5.32164006 C7.3805083,5.32164006 7.09208648,5.03321824 7.09208648,4.67784136 C7.09208648,4.32246447 7.3805083,4.03404266 7.73588518,4.03404266 L22.4531235,4.03404266 C22.8085004,4.03404266 23.0969222,4.32246447 23.0969222,4.67784136 C23.0969222,5.03321824 22.809788,5.32164006 22.4531235,5.32164006 Z" id="Shape"></path>
                    <path d="M4.23362025,8.82519258 C1.94684727,8.82519258 0.0862690258,6.96590194 0.0862690258,4.67784136 C0.0862690258,2.38978078 1.94555967,0.530490129 4.23362025,0.530490129 C6.52168083,0.530490129 8.38097148,2.38978078 8.38097148,4.67784136 C8.38097148,6.96590194 6.52039324,8.82519258 4.23362025,8.82519258 Z M4.23362025,1.81808753 C2.65631344,1.81808753 1.37386643,3.10053454 1.37386643,4.67784136 C1.37386643,6.25514817 2.65631344,7.53759518 4.23362025,7.53759518 C5.81092707,7.53759518 7.09337408,6.25514817 7.09337408,4.67784136 C7.09337408,3.10053454 5.81092707,1.81808753 4.23362025,1.81808753 Z" id="Shape"></path>
                    <path d="M25.956676,8.82519258 C23.669903,8.82519258 21.8093248,6.96590194 21.8093248,4.67784136 C21.8093248,2.38978078 23.6686154,0.530490129 25.956676,0.530490129 C28.2447366,0.530490129 30.1040272,2.38978078 30.1040272,4.67784136 C30.1040272,6.96590194 28.243449,8.82519258 25.956676,8.82519258 Z M25.956676,1.81808753 C24.3793692,1.81808753 23.0969222,3.10053454 23.0969222,4.67784136 C23.0969222,6.25514817 24.3793692,7.53759518 25.956676,7.53759518 C27.5339828,7.53759518 28.8164298,6.25514817 28.8164298,4.67784136 C28.8164298,3.10053454 27.5339828,1.81808753 25.956676,1.81808753 Z" id="Shape"></path>
                </g>
                <path d="M28.8962609,18.1976141 L14.1764474,18.1976141 C13.8210705,18.1976141 13.5326487,17.9091922 13.5326487,17.5538154 C13.5326487,17.1984385 13.8210705,16.9100167 14.1764474,16.9100167 L28.8975485,16.9100167 C29.2529253,16.9100167 29.5413472,17.1984385 29.5413472,17.5538154 C29.5413472,17.9091922 29.2529253,18.1976141 28.8962609,18.1976141 Z" id="Shape"></path>
                <path d="M38.9897369,18.1976141 L35.8943527,18.1976141 C35.5389759,18.1976141 35.250554,17.9091922 35.250554,17.5538154 C35.250554,17.1984385 35.5389759,16.9100167 35.8943527,16.9100167 L38.9897369,16.9100167 C39.7867597,16.9100167 40.4537351,16.3383234 40.5760569,15.5503138 L41.1838029,11.6656324 C41.2520455,11.2265617 41.1413121,10.7913538 40.8709167,10.4385521 C40.6018088,10.0883256 40.2090916,9.86814648 39.7700209,9.82050537 L30.4207762,8.80716622 C30.293304,8.79300265 30.1735575,8.74149875 30.0757001,8.66038012 L22.2767226,2.10522175 C21.7951612,1.70091617 21.1822648,1.47816182 20.5539173,1.47816182 L7.71013324,1.47816182 C7.12170122,1.47816182 6.57318473,1.76787123 6.239697,2.25329545 L1.56829363,9.0633981 C1.3352385,9.40332382 1.24253149,9.81277979 1.30691136,10.2196606 L2.13869928,15.5516014 C2.26230863,16.3383234 2.92928409,16.9113043 3.72630688,16.9113043 L7.16161674,16.9113043 C7.51699363,16.9113043 7.80541544,17.1997261 7.80541544,17.555103 C7.80541544,17.9104798 7.51699363,18.1989017 7.16161674,18.1989017 L3.72759447,18.1989017 C2.29192337,18.1989017 1.0880198,17.1688237 0.866553051,15.751179 L0.0347651298,10.4192382 C-0.0798310388,9.68788284 0.0875566232,8.94622674 0.507313376,8.33461797 L5.17871675,1.52451532 C5.75040999,0.690152207 6.69808168,0.191852013 7.71013324,0.191852013 L20.5552049,0.191852013 C21.4874254,0.191852013 22.3926064,0.521476947 23.1046478,1.12149734 L30.7529763,7.55047116 L39.9065062,8.54320875 C40.7009538,8.62819018 41.4052696,9.02477018 41.8919814,9.6582681 C42.3774057,10.291766 42.5782708,11.0772004 42.4559491,11.8677852 L41.8482031,15.7524666 C41.628024,17.1675361 40.425408,18.1976141 38.9897369,18.1976141 Z" id="Shape"></path>
                <path d="M24.8068515,9.30804161 L6.17789233,9.30804161 C5.82251545,9.30804161 5.53409363,9.01961979 5.53409363,8.66424291 C5.53409363,8.30886603 5.82251545,8.02044421 6.17789233,8.02044421 L24.8068515,8.02044421 C25.1622284,8.02044421 25.4506502,8.30886603 25.4506502,8.66424291 C25.4506502,9.01961979 25.1622284,9.30804161 24.8068515,9.30804161 Z" id="Shape"></path>
            </g>
        </g>
    </g>
</svg>