<?xml version="1.0" encoding="UTF-8"?>
<svg width="26px" height="22px" viewBox="0 0 26 22" version="1.1" xmlns="http://www.w3.org/2000/svg" xmlns:xlink="http://www.w3.org/1999/xlink">
    <!-- Generator: Sketch 46.2 (44496) - http://www.bohemiancoding.com/sketch -->
    <title>danger</title>
    <desc>Created with Sketch.</desc>
    <defs></defs>
    <g id="Symbols" stroke="none" stroke-width="1" fill="none" fill-rule="evenodd" opacity="0.200000003">
        <g id="Navigation" transform="translate(-54.000000, -952.000000)" fill-rule="nonzero" fill="#000000">
            <g id="warning">
                <g transform="translate(54.000000, 951.000000)">
                    <g id="Warning">
                        <g id="danger" transform="translate(0.000000, 1.248568)">
                            <path d="M24.8532,19.0045241 L13.8525294,0.760884206 C13.5745131,0.299809043 13.0753374,0.0178749266 12.5368859,0.0178749266 C11.9984343,0.0178749266 11.4992586,0.299760071 11.2212423,0.760884206 L0.220669642,19.0045241 C-0.0654271287,19.4790177 -0.0738993542,20.0708491 0.198583089,20.5532763 C0.471065532,21.0357524 0.982190489,21.3340922 1.53626424,21.3340922 L23.5375565,21.3340922 C24.0916302,21.3340922 24.6027552,21.0357034 24.8752376,20.5532763 C25.1477201,20.0708002 25.1392968,19.4790177 24.8532,19.0045241 Z M12.5451132,6.32855656 C13.1769062,6.32855656 13.7114889,6.6849777 13.7114889,7.31672168 C13.7114889,9.24442233 13.4846977,12.0145952 13.4846977,13.9422959 C13.4846977,14.4445078 12.9339051,14.6550402 12.5451132,14.6550402 C12.0267893,14.6550402 11.5893678,14.4444589 11.5893678,13.9422959 C11.5893678,12.0145952 11.3626256,9.24442233 11.3626256,7.31672168 C11.3626256,6.6849777 11.8809495,6.32855656 12.5451132,6.32855656 Z M12.5613231,18.2675874 C11.8485788,18.2675874 11.3139471,17.684424 11.3139471,17.0202603 C11.3139471,16.3398867 11.8485298,15.7729332 12.5613231,15.7729332 C13.2254868,15.7729332 13.7924893,16.3398867 13.7924893,17.0202603 C13.7924893,17.684424 13.2254868,18.2675874 12.5613231,18.2675874 Z" id="Shape"></path>
                        </g>
                    </g>
                </g>
            </g>
        </g>
    </g>
</svg>