<?xml version="1.0" encoding="UTF-8"?>
<svg width="35px" height="32px" viewBox="0 0 35 32" version="1.1" xmlns="http://www.w3.org/2000/svg" xmlns:xlink="http://www.w3.org/1999/xlink">
    <!-- Generator: Sketch 46.2 (44496) - http://www.bohemiancoding.com/sketch -->
    <title>family</title>
    <desc>Created with Sketch.</desc>
    <defs></defs>
    <g id="New-Version" stroke="none" stroke-width="1" fill="none" fill-rule="evenodd" opacity="0.300000012">
        <g id="Numbers-/-Index" transform="translate(-935.000000, -341.000000)" fill-rule="nonzero" fill="#000000">
            <g id="family" transform="translate(935.425781, 341.000000)">
                <path d="M10.6505017,11.1232742 C10.4335079,10.9472914 10.1149986,10.9804779 9.93894829,11.1975391 C9.73456809,11.4495405 9.46361256,11.5882897 9.17586143,11.5882897 C8.8881103,11.5882897 8.61715477,11.4494731 8.41277458,11.1975391 C8.23679176,10.9805453 7.91814752,10.9473588 7.70122121,11.1232742 C7.48422745,11.299257 7.45097351,11.6178338 7.62695633,11.8348276 C8.0213494,12.321158 8.5859244,12.6000729 9.17586143,12.6000729 C9.76579846,12.6000729 10.330306,12.321158 10.7247665,11.8348276 C10.9007494,11.6178338 10.8674954,11.299257 10.6505017,11.1232742 Z" id="Shape"></path>
                <path d="M6.86386947,8.12030179 C6.58448242,8.12030179 6.35797789,8.34680631 6.35797789,8.62619337 L6.35797789,9.20419136 C6.35797789,9.48357842 6.58448242,9.71008294 6.86386947,9.71008294 C7.14325653,9.71008294 7.36976105,9.48357842 7.36976105,9.20419136 L7.36976105,8.62619337 C7.36976105,8.34680631 7.14325653,8.12030179 6.86386947,8.12030179 Z" id="Shape"></path>
                <path d="M11.4878534,8.12030179 C11.2084663,8.12030179 10.9819618,8.34680631 10.9819618,8.62619337 L10.9819618,9.20419136 C10.9819618,9.48357842 11.2083989,9.71008294 11.4878534,9.71008294 C11.7672404,9.71008294 11.993745,9.48357842 11.993745,9.20419136 L11.993745,8.62619337 C11.993745,8.34680631 11.7672404,8.12030179 11.4878534,8.12030179 Z" id="Shape"></path>
                <path d="M27.4123759,14.0131967 C27.1953822,13.8372139 26.8768054,13.8704004 26.7008226,14.0874616 C26.4964424,14.3393956 26.2254194,14.4782122 25.9377357,14.4782122 C25.6499846,14.4782122 25.379029,14.3393956 25.1746488,14.0874616 C24.9987335,13.8704678 24.6800892,13.8372139 24.4630955,14.0131967 C24.2461017,14.1891795 24.2129152,14.5077563 24.388898,14.7247501 C24.7832237,15.211148 25.3477987,15.4899954 25.9377357,15.4899954 C26.5276727,15.4899954 27.0921803,15.2110805 27.4865734,14.7247501 C27.6625562,14.5077563 27.6293697,14.1891795 27.4123759,14.0131967 Z" id="Shape"></path>
                <path d="M23.6257437,11.0102917 C23.3463567,11.0102917 23.1198522,11.2367963 23.1198522,11.5161833 L23.1198522,12.0941813 C23.1198522,12.3735684 23.3463567,12.6000729 23.6257437,12.6000729 C23.9051308,12.6000729 24.1316353,12.3735684 24.1316353,12.0941813 L24.1316353,11.5161833 C24.1316353,11.2367963 23.9051308,11.0102917 23.6257437,11.0102917 Z" id="Shape"></path>
                <path d="M28.2497277,11.0102917 C27.9703406,11.0102917 27.7438361,11.2367963 27.7438361,11.5161833 L27.7438361,12.0941813 C27.7438361,12.3735684 27.9702732,12.6000729 28.2497277,12.6000729 C28.5291147,12.6000729 28.7556192,12.3735684 28.7556192,12.0941813 L28.7556192,11.5161833 C28.7556192,11.2367963 28.5291147,11.0102917 28.2497277,11.0102917 Z" id="Shape"></path>
                <path d="M33.1275342,21.0143989 L29.1642447,19.4290696 C29.1427949,19.4205031 29.122964,19.4095759 29.1028632,19.3990533 C31.8402763,18.7761996 33.1367078,17.7346026 33.1942445,17.6874535 C33.331105,17.5752805 33.3994341,17.3997698 33.3744093,17.2245964 C33.3686759,17.1845298 32.8014703,13.1683578 32.8014703,9.20425881 C32.8014703,5.41951529 29.7223443,2.34038934 25.9376008,2.34038934 C22.1528573,2.34038934 19.0737988,5.41944784 19.0737988,9.20425881 C19.0737988,10.2412691 19.0267171,11.5096405 18.9500914,12.7103573 L17.8456964,13.2625885 L14.6039432,11.6417793 C14.5946347,11.6371251 14.5848542,11.6337525 14.5753434,11.6297054 C14.7295392,11.1802713 14.8303802,10.7063521 14.8674115,10.214558 C15.5455086,10.0050515 16.039596,9.37228227 16.039596,8.62626082 C16.039596,8.12380931 15.815115,7.67309364 15.461598,7.36807474 L15.461598,4.00220945 C15.461598,3.07238073 14.9917934,2.20238212 14.2213542,1.67962749 C13.9603142,0.709664705 13.0888316,0.0283299283 12.0657165,0.0283299283 L7.44173256,0.0283299283 C4.93183581,0.0283299283 2.88985505,2.07031069 2.88985505,4.58020744 L2.88985505,7.36800729 C2.53633801,7.67295873 2.31185706,8.12374186 2.31185706,8.62619337 C2.31185706,9.37221482 2.8059445,10.004984 3.48404157,10.2144906 C3.61179605,11.9128698 4.48705594,13.405115 5.779845,14.3654996 L5.779845,15.7637839 L1.59618911,17.0188672 C0.64147052,17.3053367 0,18.1674434 0,19.1642522 L0,24.8100696 C0,25.0894567 0.226504522,25.3159612 0.505891577,25.3159612 L0.57799799,25.3159612 L0.57799799,31.1680475 C0.57799799,31.4474346 0.804502513,31.6739391 1.08388957,31.6739391 C1.36327662,31.6739391 1.58978115,31.4474346 1.58978115,31.1680475 L1.58978115,25.3159612 L3.46798794,25.3159612 L3.46798794,31.1680475 C3.46798794,31.4474346 3.69449246,31.6739391 3.97387952,31.6739391 C4.25326657,31.6739391 4.4797711,31.4474346 4.4797711,31.1680475 L4.4797711,22.4451277 C4.4797711,22.0014271 4.34965578,21.5717565 4.10359012,21.202658 L3.23885278,19.905552 C3.0838476,19.6730442 2.76972266,19.6103137 2.5373498,19.7651839 C2.30484203,19.9201217 2.24204402,20.2342466 2.3970492,20.4667544 L3.26178653,21.7639278 C3.39669096,21.9662845 3.46805539,22.2018276 3.46805539,22.4451277 L3.46805539,24.3041781 L1.08388957,24.3041781 L1.01178315,24.3041781 L1.01178315,19.1642522 C1.01178315,18.6176869 1.36347898,18.1450493 1.88704304,17.9879531 L3.6237351,17.4669522 C4.22851161,19.9992431 6.52532683,21.8479733 9.17586143,21.8479733 C10.1280843,21.8479733 11.0528541,21.6131721 11.8809649,21.1663687 C12.1836229,21.5792437 12.6717746,21.8479733 13.2217799,21.8479733 L13.2938863,21.8479733 L13.2938863,21.9200797 C13.2938863,23.6160306 14.2268853,25.0972812 15.6058783,25.8803339 L15.6058783,26.7054768 C15.6058783,26.7365048 15.5860473,26.7640253 15.5565707,26.7738733 L13.6694602,27.4029326 C12.7533918,27.7082888 12.1378903,28.5622338 12.1378903,29.5278796 L12.1378903,31.1680475 C12.1378903,31.4474346 12.3643949,31.6739391 12.6437819,31.6739391 C12.923169,31.6739391 13.1496735,31.4474346 13.1496735,31.1680475 L13.1496735,29.5278796 C13.1496735,28.9984472 13.4871369,28.530194 13.9893861,28.362845 L14.5443154,28.1778236 C15.2784653,29.2727079 16.513178,29.9400126 17.8456964,29.9400126 C19.1796313,29.9400126 20.4131973,29.2731126 21.1472123,28.1778911 L21.7020067,28.362845 C22.2042559,28.5302614 22.5417193,28.9984472 22.5417193,29.5278796 L22.5417193,31.1680475 C22.5417193,31.4474346 22.7682238,31.6739391 23.0476108,31.6739391 C23.3269979,31.6739391 23.5535024,31.4474346 23.5535024,31.1680475 L23.5535024,29.5278796 C23.5535024,28.5622338 22.938001,27.7082888 22.0219325,27.4030001 L20.134822,26.7739408 C20.1053454,26.7640927 20.0855145,26.7366397 20.0855145,26.7055442 L20.0855145,25.8804013 C21.1180055,25.2941067 21.8995068,24.3163195 22.2273245,23.1498684 C23.1833247,24.1501847 24.5185412,24.7380981 25.9375333,24.7380981 C28.1777562,24.7380981 30.143381,23.2899666 30.8204663,21.181478 L32.7515556,21.9538733 C33.2205508,22.1414578 33.5235462,22.5890707 33.5235462,23.0940854 L33.5235462,25.4602415 L33.4514398,25.4602415 L31.6453394,25.4602415 L31.6453394,24.8101371 C31.6453394,24.53075 31.4188349,24.3042455 31.1394478,24.3042455 C30.8600607,24.3042455 30.6335562,24.53075 30.6335562,24.8101371 L30.6335562,31.168115 C30.6335562,31.447502 30.8600607,31.6740066 31.1394478,31.6740066 C31.4188349,31.6740066 31.6453394,31.447502 31.6453394,31.168115 L31.6453394,26.4720247 L32.9455482,26.4720247 L32.9455482,31.168115 C32.9455482,31.447502 33.1720527,31.6740066 33.4514398,31.6740066 C33.7308268,31.6740066 33.9573313,31.447502 33.9573313,31.168115 L33.9573313,26.4720247 L34.0294378,26.4720247 C34.1636002,26.4720247 34.2922316,26.4187374 34.3871368,26.3238996 C34.4820421,26.2289943 34.5353293,26.100363 34.5353293,25.9661331 L34.5353293,23.0940854 C34.5355317,22.1728231 33.9828957,21.3565165 33.1275342,21.0143989 Z M20.0856494,9.20419136 C20.0856494,5.97734507 22.7108894,3.35210504 25.9377357,3.35210504 C29.164582,3.35210504 31.7897546,5.97734507 31.7897546,9.20419136 C31.7897546,12.601287 32.1988522,16.0353465 32.3318005,17.0609574 C31.8784542,17.3575447 30.7177366,18.0107519 28.7556192,18.4400178 L28.7556192,17.6349757 C29.0243488,17.4826686 29.2816116,17.3088442 29.5234952,17.1133677 C30.5189549,16.3087303 31.222414,15.1818062 31.5040945,13.9402809 C31.5979879,13.5265965 31.6456092,13.0999612 31.6456092,12.6722468 C31.6456092,9.81288011 29.5777268,9.40236595 27.5779036,9.00534224 C26.3054177,8.75273372 24.9896274,8.49149131 23.9418248,7.65326269 C23.7899899,7.53178126 23.5819673,7.50810553 23.406659,7.59235334 C23.2313507,7.67660115 23.1199196,7.85379811 23.1199196,8.04833028 C23.1199196,8.06175327 23.0978627,9.39285519 21.1911237,9.86953996 C20.9200332,9.93732943 20.7552475,10.2119948 20.8230369,10.4830853 C20.890759,10.7541757 21.1654918,10.9188265 21.4365148,10.851172 C23.0324341,10.4521922 23.6834828,9.55689897 23.9489747,8.88426553 C25.0460175,9.53436993 26.2749293,9.77827712 27.3808757,9.99783407 C29.5183688,10.4221759 30.633826,10.7338726 30.633826,12.6723142 C30.633826,13.0248195 30.5946363,13.3761106 30.5174035,13.7164744 C30.2857052,14.7372962 29.7068978,15.6642244 28.8874209,16.3266052 C28.0442682,17.0081423 27.0242559,17.3683371 25.9377357,17.3683371 C24.9472674,17.3683371 24.0046228,17.0645323 23.2046396,16.4904466 C22.9115597,15.6905308 22.4408108,14.9586743 21.8196434,14.3556516 L21.8196434,12.0943162 C21.8196434,11.9189405 21.7288527,11.7561108 21.5797158,11.6639711 C21.430579,11.5718314 21.2444109,11.5633999 21.0875171,11.6418468 L19.9952634,12.1879399 C20.055161,11.1344038 20.0856494,10.1327385 20.0856494,9.20419136 Z M20.8078602,12.9127139 L20.8078602,14.7435692 L18.9769374,13.8281753 L20.8078602,12.9127139 Z M14.8836675,12.9127139 L16.7145228,13.8281753 L14.8836675,14.7435692 L14.8836675,12.9127139 Z M12.1378903,18.4520918 L12.1378903,18.9325538 C11.775672,19.2453297 11.5598924,19.7030604 11.5598924,20.1860183 C10.8393678,20.6117092 10.0208353,20.8361901 9.17579398,20.8361901 C6.97523307,20.8361901 5.07139443,19.2876223 4.59511438,17.1755587 L5.84493638,16.8005918 C6.15326044,18.3579285 7.52935298,19.5359813 9.17586143,19.5359813 C10.4832876,19.5359813 11.6197225,18.7928603 12.1869956,17.707217 C12.154551,17.9528779 12.1378903,18.2016417 12.1378903,18.4520918 Z M6.79176306,16.1392904 L6.79176306,14.9674431 C7.51768375,15.3026806 8.32522161,15.4899954 9.17586143,15.4899954 C10.0264338,15.4899954 10.8340391,15.3026131 11.5599598,14.9675106 L11.5599598,16.1400323 C11.5599598,17.4546085 10.490505,18.5241307 9.17586143,18.5241307 C7.86344378,18.5241307 6.79547293,17.458116 6.79189796,16.1465078 C6.79189796,16.1440795 6.79176306,16.1416512 6.79176306,16.1392904 Z M9.17586143,14.4782122 C6.58637108,14.4782122 4.4797711,12.3716123 4.4797711,9.78218935 C4.4797711,9.5028023 4.25326657,9.27629777 3.97387952,9.27629777 C3.61543847,9.27629777 3.32377512,8.98463442 3.32377512,8.62619337 C3.32377512,8.26775232 3.61537102,7.97608897 3.97387952,7.97608897 L5.1298755,7.97608897 C5.34761123,7.97608897 5.54092927,7.83680015 5.60979798,7.63019403 L6.07413899,6.23717098 C7.23667784,6.21093207 10.840582,6.04749537 12.8700166,5.03274432 C13.1199271,4.90775537 13.2212403,4.60395062 13.0962513,4.35404018 C12.9713299,4.10412974 12.6675251,4.00281652 12.4175472,4.12780546 C10.2401224,5.21648414 5.75279666,5.23037929 5.70773859,5.23037929 C5.49000285,5.23044675 5.29668482,5.36973556 5.22788356,5.57634168 L4.76522885,6.96437326 L3.97387952,6.96437326 C3.94973163,6.96437326 3.92571864,6.96518269 3.90177311,6.96619447 L3.90177311,4.58020744 C3.90177311,2.62820792 5.48986795,1.04011308 7.44186746,1.04011308 L12.0658514,1.04011308 C12.6699534,1.04011308 13.1774638,1.4755171 13.2727738,2.07530216 C13.2969891,2.22774415 13.3894661,2.36075991 13.5238984,2.43657619 C14.0950837,2.75872795 14.4499498,3.35858046 14.4499498,4.002142 L14.4499498,6.96605957 C14.4260042,6.96498033 14.4020587,6.96423836 14.3778433,6.96423836 L13.7998454,6.96423836 C13.5204583,6.96423836 13.2939538,7.19074288 13.2939538,7.47012994 C13.2939538,7.74951699 13.5204583,7.97602151 13.7998454,7.97602151 L14.3778433,7.97602151 C14.7362844,7.97602151 15.0279477,8.26761742 15.0279477,8.62612592 C15.0279477,8.98463442 14.7363518,9.27623032 14.3778433,9.27623032 C14.0984563,9.27623032 13.8719518,9.50273484 13.8719518,9.7821219 C13.8719518,12.3715448 11.7653518,14.4782122 9.17586143,14.4782122 Z M12.5716755,16.1401672 L12.5716755,14.3654996 C13.0749365,13.991612 13.5147923,13.5374563 13.8718843,13.0213119 L13.8718843,14.3555841 C13.3053532,14.9055894 12.8637436,15.5626414 12.5681005,16.2808726 C12.5700567,16.2341282 12.5716755,16.1873163 12.5716755,16.1401672 Z M20.1377225,27.8413045 C19.5807696,28.521695 18.7440924,28.928162 17.8457638,28.928162 C16.9485145,28.928162 16.1112977,28.5214252 15.5541424,27.8412371 L15.876564,27.7337857 C16.3198599,27.5860654 16.6177289,27.1727857 16.6177289,26.7055442 L16.6177289,26.3023149 C17.0086819,26.4120596 17.4202753,26.4720247 17.8458313,26.4720247 C18.2713873,26.4720247 18.6829807,26.4120596 19.0739337,26.3023149 L19.0739337,26.7055442 C19.0738662,27.1727182 19.3716677,27.5859979 19.8150311,27.7337183 L20.1377225,27.8413045 Z M21.8918172,20.8361901 C21.6124302,20.8361901 21.3859256,21.0626946 21.3859256,21.3420817 L21.3859256,21.8450728 C21.3859256,21.8494572 21.3858582,21.8538416 21.3859256,21.858226 L21.3859256,21.9200797 C21.3858582,23.8720792 19.7977633,25.460174 17.8457638,25.460174 C15.8937643,25.460174 14.3057369,23.8720792 14.3057369,21.9200797 L14.3057369,21.3420817 C14.3057369,21.0626946 14.0792324,20.8361901 13.7998454,20.8361901 L13.2218474,20.8361901 C12.8634063,20.8361901 12.571743,20.5445942 12.571743,20.1860857 C12.571743,19.9553992 12.6938315,19.7466346 12.8982791,19.6276489 C12.9439443,19.6010727 12.9836736,19.5674141 13.0180742,19.529371 C14.2686382,19.4931492 18.3224486,19.2578084 20.9867435,17.7353446 C21.2293016,17.5967303 21.3136169,17.2877317 21.1750026,17.0451061 C21.0363883,16.8024805 20.7272548,16.7182327 20.4847641,16.856847 C18.1507827,18.1905121 14.4832711,18.4575554 13.149741,18.5109101 L13.149741,18.4520918 C13.149741,17.5112009 13.4346591,16.599989 13.9509383,15.8317757 C13.9913422,15.8957879 14.0453714,15.9513685 14.1118793,15.9924469 C14.1931592,16.0426313 14.2853664,16.0679934 14.3778433,16.0679934 C14.4551436,16.0679934 14.5326462,16.0502534 14.6040781,16.0145712 L17.8458313,14.3936946 L21.0875845,16.0145712 C21.1590164,16.0502534 21.236519,16.0679934 21.3138192,16.0679934 C21.4063637,16.0679934 21.4985708,16.0426313 21.5797833,15.9924469 C21.6462237,15.9513685 21.7002529,15.8957204 21.7406568,15.8317757 C22.256936,16.599989 22.5418542,17.5112009 22.5418542,18.4520918 L22.5418542,19.1904236 C22.5418542,19.370521 22.6375689,19.5370606 22.793316,19.6276489 C22.9978311,19.746702 23.1199196,19.9553992 23.1199196,20.1860857 C23.1199196,20.5445268 22.8282563,20.8361901 22.4698152,20.8361901 L21.8918172,20.8361901 L21.8918172,20.8361901 Z M25.9377357,23.7261801 C24.537158,23.7261801 23.2377586,23.0131428 22.4813495,21.8477035 C23.3923591,21.8414304 24.1316353,21.0985792 24.1316353,20.1861532 C24.1316353,19.7031954 23.9158557,19.2453972 23.5536373,18.9326213 L23.5536373,18.4521592 C23.5536373,18.248521 23.5426426,18.0460294 23.5211254,17.8454266 C24.2712614,18.1971224 25.0902661,18.3799853 25.9377357,18.3799853 C26.5545862,18.3799853 27.164624,18.2777952 27.7438361,18.0846121 L27.7438361,18.8254397 C27.7438361,19.508933 28.1538781,20.1146538 28.7884685,20.3684765 L29.8793731,20.8048248 C29.356551,22.5334901 27.7599572,23.7261801 25.9377357,23.7261801 Z" id="Shape"></path>
                <path d="M19.3204715,22.6831666 C19.1034777,22.5071837 18.784901,22.5403702 18.6089181,22.7574314 C18.4044705,23.0094329 18.133515,23.1481821 17.8458313,23.1481821 C17.5581476,23.1481821 17.2871246,23.0094329 17.0827444,22.7574314 C16.9067616,22.5404377 16.5881174,22.5071837 16.3711911,22.6831666 C16.1541973,22.8591494 16.1209434,23.1777262 16.2969262,23.3947199 C16.6913867,23.8809829 17.2558943,24.1599652 17.8458313,24.1599652 C18.4357683,24.1599652 19.0002759,23.8810504 19.3947364,23.3947874 C19.5706518,23.1777936 19.5373978,22.8591494 19.3204715,22.6831666 Z" id="Shape"></path>
                <circle id="Oval" cx="16.1210783" cy="20.7663771" r="1"></circle>
                <circle id="Oval" cx="19.561141" cy="20.7663771" r="1"></circle>
            </g>
        </g>
    </g>
</svg>