<?xml version="1.0" encoding="UTF-8"?>
<svg width="31px" height="31px" viewBox="0 0 31 31" version="1.1" xmlns="http://www.w3.org/2000/svg" xmlns:xlink="http://www.w3.org/1999/xlink">
    <!-- Generator: Sketch 46.2 (44496) - http://www.bohemiancoding.com/sketch -->
    <title>flat</title>
    <desc>Created with Sketch.</desc>
    <defs></defs>
    <g id="New-Version" stroke="none" stroke-width="1" fill="none" fill-rule="evenodd" opacity="0.300000012">
        <g id="Numbers-/-Index" transform="translate(-215.000000, -689.000000)" fill-rule="nonzero" fill="#000000">
            <g id="flat" transform="translate(215.000000, 689.142897)">
                <path d="M29.9049676,24.7957474 L22.7546281,21.4589223 C22.7447485,21.4475608 22.732399,21.4381752 22.7210375,21.4278017 C22.7086881,21.4164402 22.6963386,21.4055726 22.6830012,21.3951991 C22.6741096,21.3882834 22.6666999,21.3793918 22.6573143,21.37297 C22.641013,21.3621025 22.6232298,21.3561748 22.6059405,21.3477771 C22.5965549,21.3428374 22.5891452,21.3359217 22.5797597,21.3314758 L19.0374394,19.8134798 L13.4006502,17.3974307 L14.9571766,16.8787532 L18.7385824,18.4436772 L18.7390764,18.4436772 L29.112132,22.7358569 C29.1723974,22.7610498 29.2366146,22.7733992 29.3008318,22.7733992 C29.3971577,22.7733992 29.4929895,22.7452425 29.5754839,22.6904108 C29.712316,22.5985308 29.7948104,22.4444095 29.7948104,22.2794207 L29.7948104,6.472107 C29.7948104,6.27204569 29.6742796,6.09174351 29.4900256,6.01567082 L25.5381972,4.38010783 L25.5377032,4.38010783 L15.1646476,0.0879281824 C15.1280932,0.0726148473 15.0900568,0.0627352762 15.0515265,0.0568075336 C15.0505385,0.0568075336 15.0500446,0.056313555 15.0490566,0.056313555 C14.9749598,0.0454460269 14.8998751,0.0528557052 14.8287422,0.07508474 C14.8257783,0.0760726971 14.8223205,0.07508474 14.8193566,0.0760726971 L0,5.01585823 L0.312688424,5.95293554 L14.4814753,1.22951262 L14.4814753,15.9955195 L12.505561,16.6539929 L12.505561,12.3998496 C12.505561,12.2432584 12.4314643,12.0960528 12.3059937,12.0026909 C12.1800292,11.9098229 12.0175102,11.8811722 11.8678347,11.9271122 L0.506328017,15.384962 C0.298363046,15.4481913 0.156097223,15.6403489 0.156097223,15.8576995 L0.156097223,20.797485 L0.156097223,23.7613564 C0.156097223,23.9515381 0.265266483,24.1249246 0.436677041,24.206925 L5.69162089,26.7202879 L3.40943997,27.7576428 C3.23407759,27.8366794 3.12145048,28.0110538 3.11996854,28.2032115 C3.1184866,28.3953692 3.22864382,28.5712255 3.40252427,28.6537199 L6.36886548,30.0590889 L6.79121714,29.1659757 L4.78665218,28.2165489 L6.8544464,27.2770017 L11.7976898,29.6411831 C11.8120152,29.6480988 11.8273285,29.6505687 11.8416539,29.6555084 C11.8579552,29.6614362 11.8737625,29.6673639 11.8905577,29.6718097 C11.9192085,29.6792194 11.9483532,29.6826773 11.977498,29.6846532 C11.9893535,29.6851472 12.000221,29.689099 12.0115825,29.689099 C12.0160283,29.689099 12.0199801,29.687617 12.023932,29.6871231 C12.0545586,29.6861351 12.0841973,29.6807013 12.1138361,29.6742796 C12.1266795,29.6713158 12.1400169,29.6708218 12.1528604,29.66687 C12.1657038,29.6629181 12.1780533,29.6564964 12.1908967,29.6515566 C12.1958365,29.6495807 12.2007763,29.6505687 12.2057161,29.6485927 L22.5792657,25.2027858 C22.7615438,25.1257251 22.8791107,24.9469049 22.8791107,24.7493135 L22.8791107,22.6074225 L28.514912,25.2378582 L19.7107322,29.2395785 L20.1197465,30.1386195 L29.9005218,25.6928125 C30.0758842,25.6132819 30.1890053,25.4384135 30.1899932,25.2457619 C30.1909812,25.0531103 30.079342,24.8772539 29.9049676,24.7957474 Z M25.842982,17.8336137 L25.842982,12.8938282 L25.842982,10.917914 L25.842982,5.5760299 L28.8068533,6.80208467 L28.8068533,21.5399348 L25.842982,20.3133861 L25.842982,17.8336137 Z M24.8550249,19.9048658 L20.268928,18.0070002 L22.8440382,17.3638401 L24.8550249,18.1680372 L24.8550249,19.9048658 Z M21.397175,16.7068486 L21.397175,12.7856469 L22.3851321,12.5386576 L22.3851321,16.4598594 L21.397175,16.7068486 Z M24.8550249,17.1040074 L23.3730892,16.5112331 L23.3730892,12.6354774 L24.114057,12.9318645 L24.8550249,13.2282517 L24.8550249,17.1040074 Z M24.8550249,12.1642219 L24.114057,11.8678347 L23.3730892,11.5714476 L23.3730892,10.6595632 L24.8550249,11.2523375 L24.8550249,12.1642219 Z M19.4212608,2.91842529 L24.8550249,5.16701566 L24.8550249,10.1883077 L23.3730892,9.59553339 L23.3730892,7.95404266 L22.3851321,7.95404266 L22.3851321,9.54415962 L19.4212608,10.2851274 L19.4212608,2.91842529 Z M19.4212608,11.3037112 L22.3851321,10.5627434 L22.3851321,11.5200738 L19.4212608,12.2610417 L19.4212608,11.3037112 Z M19.4212608,13.2796254 L20.4092179,13.0326362 L20.4092179,16.9538379 L19.4212608,17.2008272 L19.4212608,13.2796254 Z M15.4694324,1.28335628 L18.4333037,2.50990503 L18.4333037,10.917914 L18.4333037,12.8938282 L18.4333037,17.2477552 L15.4694324,16.0212064 L15.4694324,1.28335628 L15.4694324,1.28335628 Z M11.9829317,17.8647344 L17.6004558,20.2723858 L8.77602297,24.1362861 L2.00950475,20.8997386 L2.76924377,20.6685566 L5.73360906,19.7665518 L6.99621824,19.3822365 L7.70952327,19.1653799 L7.71001725,19.1653799 L10.6738886,18.2633751 L11.9829317,17.8647344 Z M3.11996854,19.5294421 L3.11996854,18.1897723 L5.09588275,17.5312988 L5.09588275,18.9282702 L3.11996854,19.5294421 Z M8.05975407,18.0262654 L8.05975407,16.7078366 L10.0356683,16.0493632 L10.0356683,17.4245995 L9.21220603,17.6750466 L8.05975407,18.0262654 Z M1.14405433,16.2237376 L11.5176039,13.0667207 L11.5176039,16.974091 L11.0236254,17.1242605 L11.0236254,15.363721 C11.0236254,15.2051538 10.9475527,15.0554783 10.8186243,14.9631043 C10.6887079,14.8697424 10.5232251,14.8450435 10.3735496,14.8949353 L7.40967829,15.8828924 C7.20764107,15.9505675 7.07179696,16.1387733 7.07179696,16.3516781 L7.07179696,18.3266043 L6.08383986,18.6274373 L6.08383986,16.8456566 C6.08383986,16.6870895 6.00776716,16.537908 5.87883876,16.44504 C5.74941638,16.352172 5.58393356,16.3269791 5.43376408,16.376871 L2.46989276,17.3648281 C2.26785554,17.4325031 2.13201143,17.620709 2.13201143,17.8336137 L2.13201143,19.830275 L1.14405433,20.130614 L1.14405433,16.2237376 Z M11.5176039,28.4111765 L7.07377288,26.2855868 L7.0732789,26.2855868 L1.14405433,23.4501499 L1.14405433,21.581429 L11.5176039,26.5424556 L11.5176039,28.4111765 Z M12.022944,25.6888607 L9.95267988,24.6989276 L18.8447878,20.8058827 L21.1309206,21.7854421 L12.022944,25.6888607 Z M21.8911535,24.4237816 L12.505561,28.4462489 L12.505561,26.557275 L21.8911535,22.5348076 L21.8911535,24.4237816 Z" id="Shape"></path>
                <path d="M10.8186243,4.09557618 C10.6887079,4.00270821 10.5232251,3.97702133 10.3735496,4.02740714 L1.48193566,6.99127846 C1.27989843,7.05895352 1.14405433,7.24715935 1.14405433,7.46006411 L1.14405433,13.3878067 C1.14405433,13.5463739 1.22012703,13.6955554 1.34905543,13.7884233 C1.43451372,13.8501707 1.53577932,13.8817853 1.63803288,13.8817853 C1.69039461,13.8817853 1.74325031,13.8733877 1.7941301,13.8565924 L10.6857441,10.8927211 C10.8877813,10.825046 11.0236254,10.6368402 11.0236254,10.4239354 L11.0236254,4.49619279 C11.0236254,4.33762567 10.9475527,4.18844415 10.8186243,4.09557618 Z M10.0356683,10.0682709 L2.13201143,12.7026585 L2.13201143,7.81622264 L10.0356683,5.18183502 L10.0356683,10.0682709 Z" id="Shape"></path>
                <path d="M8.20399581,7.11032729 L6.44395022,8.87086685 L5.25197997,8.47321412 C5.10724426,8.42579218 4.94867714,8.44653928 4.82172465,8.53100961 L3.339789,9.51896671 L3.88761121,10.340947 L5.1684976,9.48685811 L6.42122721,9.90426999 C6.59856551,9.96354741 6.79467499,9.91661945 6.92656727,9.78472718 L8.90248148,7.80881296 L8.20399581,7.11032729 Z" id="Shape"></path>
            </g>
        </g>
    </g>
</svg>