<?xml version="1.0" encoding="UTF-8"?>
<svg width="43px" height="27px" viewBox="0 0 43 27" version="1.1" xmlns="http://www.w3.org/2000/svg" xmlns:xlink="http://www.w3.org/1999/xlink">
    <!-- Generator: Sketch 46.2 (44496) - http://www.bohemiancoding.com/sketch -->
    <title>hands</title>
    <desc>Created with Sketch.</desc>
    <defs></defs>
    <g id="New-Version" stroke="none" stroke-width="1" fill="none" fill-rule="evenodd" opacity="0.300000012">
        <g id="Numbers-/-Index" transform="translate(-493.000000, -694.000000)" fill-rule="nonzero" fill="#000000">
            <g id="hands" transform="translate(493.000000, 694.000000)">
                <path d="M33.4741388,18.1675991 C32.6421438,16.4329789 29.6656583,14.0252607 26.7899429,11.6988541 C25.1859842,10.4022567 23.6703754,9.17637227 22.7041582,8.21015508 C22.4621278,7.96638582 22.1000344,7.88863469 21.7803357,8.00348115 C21.1850717,8.2190149 20.8175962,8.38503302 20.5279546,8.51395582 C20.0863712,8.71176993 19.9379899,8.7789224 19.3426431,8.83895389 C19.0794154,8.86545055 18.8427671,9.00679366 18.6961247,9.2258051 C17.4472213,11.0929087 16.1541843,10.9339287 15.2903933,10.6442871 C15.0148281,10.5524596 14.9653952,10.4340527 14.9388986,10.3210279 C14.753422,9.54558664 15.6843655,7.74025341 16.8907914,6.53374465 C19.7612903,3.66150692 21.2415427,2.94253667 24.3681483,4.33982137 C27.91514,5.92606036 31.4692527,7.1679256 31.5046091,7.1802631 C31.9692115,7.34098189 32.4690875,7.09721264 32.6298063,6.63617079 C32.7887862,6.17512894 32.5467558,5.67169244 32.085714,5.51097365 C32.0503575,5.49863614 28.5669578,4.28152872 25.0905963,2.72526407 C21.0401681,0.914631512 18.8179265,2.10698112 15.6436269,5.28310239 C14.4353793,6.49135 12.7943253,8.9360807 13.2182718,10.7290764 C13.400188,11.4921802 13.9372421,12.0574698 14.7356195,12.3206148 C16.737028,12.9812924 18.5634758,12.3488503 19.9236652,10.5435998 C20.4853943,10.4570717 20.7910167,10.3298877 21.2502369,10.1232138 C21.416255,10.0490231 21.6105914,9.96249499 21.8685198,9.8582472 C22.8789533,10.8068276 24.2426204,11.9108274 25.6787393,13.071381 C28.2754117,15.1716551 31.2201013,17.5528767 31.8825177,18.9307029 C32.2093374,19.6107562 31.8577599,20.0541612 31.61929,20.2572746 C31.2695341,20.5575977 30.7908554,20.6529857 30.5311882,20.4709867 C30.2450243,20.2749115 29.8723322,20.262574 29.5773085,20.4391908 C29.2805459,20.6158075 29.1145278,20.9496654 29.1516231,21.2923831 C29.2116546,21.8541123 28.6976194,22.1756327 28.4750475,22.2869186 C27.9097579,22.5730825 27.3197932,22.5236497 27.0989601,22.3187146 C26.8516304,22.0891045 26.4965752,22.0219521 26.1821758,22.1385374 C25.8677764,22.2568615 25.6486821,22.5465859 25.6168861,22.8821826 C25.5638928,23.4615486 25.134647,24.0179784 24.5746566,24.235251 C24.3043907,24.3376772 23.9122402,24.3995303 23.5607455,24.0780099 C23.341734,23.8801958 23.0378505,23.8041835 22.7535082,23.8730748 C22.4656055,23.943705 22.2341737,24.1522006 22.1334864,24.4295046 C22.0999516,24.5178544 22.0239393,24.7298277 21.1972436,24.7298277 C20.6090178,24.7298277 19.5508903,24.3323778 19.0333774,23.9896601 C18.4133556,23.5816116 14.5253851,20.6811384 11.1674305,17.8689321 C10.69579,17.4714823 9.87969294,16.6200287 9.15898384,15.8675236 C8.51950356,15.1998078 7.93483824,14.5939452 7.63451518,14.3395773 C7.25826264,14.0216174 6.70183282,14.0693114 6.38917226,14.4438251 C6.07477285,14.8165171 6.12064519,15.3747686 6.49342005,15.689168 C6.76724645,15.9205997 7.29717961,16.4805073 7.88184492,17.0899304 C8.66970649,17.9130656 9.48398191,18.7645192 10.0316347,19.2238222 C13.3207808,21.9777358 17.2740822,24.9506608 18.0618609,25.4681736 C18.7119399,25.8956807 20.1127022,26.496244 21.1973264,26.496244 C22.0681556,26.496244 22.737693,26.2966082 23.2022126,25.9062793 C23.8239732,26.1483097 24.530606,26.1500486 25.2106592,25.885082 C26.0144188,25.5741603 26.6750136,24.9471003 27.0495273,24.187557 C27.7454786,24.3359383 28.5422,24.2316905 29.2663868,23.8678583 C29.9747583,23.5110642 30.4869719,22.9652331 30.7413398,22.3274916 C31.444412,22.364587 32.1685988,22.1155184 32.7674233,21.6014832 C33.7815001,20.7342145 34.060543,19.3847066 33.4741388,18.1675991 Z" id="Shape"></path>
                <path d="M17.664411,3.53258412 L9.71541366,3.53258412 C9.22787515,3.53258412 8.83216412,3.92829515 8.83216412,4.41583366 C8.83216412,4.90337216 9.22787515,5.29908319 9.71541366,5.29908319 L17.664411,5.29908319 C18.1519496,5.29908319 18.5476606,4.90337216 18.5476606,4.41583366 C18.5476606,3.92829515 18.1519496,3.53258412 17.664411,3.53258412 Z" id="Shape"></path>
                <path d="M36.0619515,16.2880753 C35.7881251,15.8835872 35.2405551,15.7723013 34.8360671,16.0478665 L32.2535537,17.7824868 C31.8490657,18.0544915 31.7412574,18.6038832 32.013345,19.0083712 C32.1846624,19.2610003 32.4637882,19.3987829 32.7482132,19.3987829 C32.916053,19.3987829 33.0873704,19.3510889 33.2393122,19.2486628 L35.8218255,17.5140425 C36.2262308,17.241955 36.3339563,16.6926461 36.0619515,16.2880753 Z" id="Shape"></path>
                <path d="M30.5788821,20.5028655 C29.9465228,20.0047284 27.1184186,17.1095545 25.3696392,15.2865844 C25.0322208,14.933268 24.4723133,14.9209305 24.1207358,15.2600877 C23.7674194,15.5975061 23.7568207,16.1574136 24.0942391,16.5089912 C24.5482428,16.9823705 28.5527158,21.156505 29.4836593,21.8913732 C29.6443781,22.0185572 29.8387146,22.0804103 30.0294905,22.0804103 C30.2891578,22.0804103 30.548825,21.963825 30.7254418,21.7429919 C31.0275865,21.3613573 30.9622557,20.8049274 30.5788821,20.5028655 Z" id="Shape"></path>
                <path d="M27.0495273,22.2745811 C25.9913998,21.4284269 23.332957,18.6038832 22.7323109,17.9503265 C22.4001919,17.589972 21.843762,17.5687747 21.4834075,17.8973332 C21.1247918,18.2276306 21.1001168,18.7876209 21.4304142,19.1462366 C21.4622102,19.1797715 24.6347709,22.6049613 25.9454447,23.654229 C26.1079851,23.7831518 26.3040604,23.8467438 26.4965752,23.8467438 C26.7545036,23.8467438 27.0123492,23.7318973 27.1872271,23.5164464 C27.4911935,23.1348117 27.4293403,22.5783819 27.0495273,22.2745811 Z" id="Shape"></path>
                <path d="M23.5343316,24.0534177 C22.2748295,22.9918125 19.6976155,20.2484976 19.194179,19.7097046 C18.8603211,19.3529106 18.3003308,19.3334521 17.9452756,19.66731 C17.5884816,20.0011679 17.5707619,20.5593365 17.902881,20.9162134 C18.6271506,21.6916547 21.0930786,24.3060468 22.3949753,25.4047473 C22.5609934,25.5442687 22.762368,25.61316 22.9637426,25.61316 C23.2145501,25.61316 23.4654403,25.5054346 23.6403182,25.2987606 C23.9547177,24.9242469 23.9070237,24.3678171 23.5343316,24.0534177 Z" id="Shape"></path>
                <path d="M10.3230979,2.00819827 C8.80922795,0.573818249 2.75565243,0.109215912 0.936242849,0.00149043701 C0.685435421,-0.0108470694 0.454003674,0.0721205909 0.277386888,0.239960359 C0.1006873,0.405978481 0,0.639149072 0,0.882918325 L0,16.7809131 C0,17.2684516 0.395711026,17.6641626 0.883249533,17.6641626 L6.18258113,17.6641626 C6.564133,17.6641626 6.90329023,17.4186545 7.02161436,17.0547395 C7.15053716,16.6590285 10.1941751,7.31812853 10.5951027,2.72534688 C10.6181217,2.45681981 10.5191732,2.19185323 10.3230979,2.00819827 Z M5.53780152,15.8977464 L1.76641626,15.8977464 L1.76641626,1.82975984 C4.60511916,2.05407061 7.66813282,2.54160911 8.78099245,3.08214094 C8.31291243,6.950653 6.19491863,13.8238861 5.53780152,15.8977464 Z" id="Shape"></path>
                <path d="M41.5114032,1.76616786 C34.576317,1.76616786 30.7290023,3.54144394 30.5682835,3.61563458 C30.3386734,3.72336006 30.1672731,3.92299582 30.096643,4.16502623 C30.0260128,4.40705664 30.0612865,4.66672389 30.1937698,4.88217484 C31.2854321,6.63981408 34.703501,16.4011829 35.3606181,18.7823216 C35.4666047,19.1656123 35.8146218,19.4305789 36.2120716,19.4305789 L41.5114032,19.4305789 C41.9989417,19.4305789 42.3946528,19.0348679 42.3946528,18.5473294 L42.3946528,2.64933459 C42.3946528,2.16005724 41.9989417,1.76616786 41.5114032,1.76616786 Z M40.6282365,17.6641626 L36.8727492,17.6641626 C36.0354548,14.9367457 33.5624058,7.82504271 32.1828408,4.88573532 C33.5306098,4.42825396 36.4258665,3.64213124 40.6282365,3.54326559 L40.6282365,17.6641626 Z" id="Shape"></path>
            </g>
        </g>
    </g>
</svg>