<?xml version="1.0" encoding="UTF-8"?>
<svg width="38px" height="33px" viewBox="0 0 38 33" version="1.1" xmlns="http://www.w3.org/2000/svg" xmlns:xlink="http://www.w3.org/1999/xlink">
    <!-- Generator: Sketch 46.2 (44496) - http://www.bohemiancoding.com/sketch -->
    <title>market</title>
    <desc>Created with Sketch.</desc>
    <defs></defs>
    <g id="New-Version" stroke="none" stroke-width="1" fill="none" fill-rule="evenodd" opacity="0.300000012">
        <g id="Numbers-/-Index" transform="translate(-934.000000, -487.000000)" fill-rule="nonzero" fill="#000000">
            <g id="market" transform="translate(934.000000, 487.000000)">
                <path d="M26.6849177,17.8628548 L21.581245,17.8628548 C20.1844503,17.8628548 19.0485953,18.9987098 19.0485953,20.3955044 L19.0485953,24.3095994 C19.0485953,25.706394 20.1844503,26.842249 21.581245,26.842249 L26.6849177,26.842249 C28.0817124,26.842249 29.2175674,25.706394 29.2175674,24.3095994 L29.2175674,20.3955044 C29.2175674,18.9987098 28.0817124,17.8628548 26.6849177,17.8628548 Z M27.3756404,24.3095994 C27.3756404,24.6933342 27.0609778,25.000322 26.6849177,25.000322 L21.581245,25.000322 C21.1975102,25.000322 20.8905223,24.6856595 20.8905223,24.3095994 L20.8905223,20.3955044 C20.8905223,20.0117696 21.2051849,19.7047818 21.581245,19.7047818 L26.6849177,19.7047818 C27.0686525,19.7047818 27.3756404,20.0194443 27.3756404,20.3955044 L27.3756404,24.3095994 Z" id="Shape"></path>
                <path d="M37.5599619,10.7484116 C37.5599619,10.587243 37.5215884,10.4337491 37.4371667,10.2956046 L31.8499881,0.4719938 C31.6888195,0.18803005 31.3818317,0.00383734796 31.0518197,0.00383734796 L6.50046745,0.00383734796 C6.17045553,0.00383734796 5.86346769,0.180355354 5.70229908,0.4719938 L0.122795135,10.2956046 C0.0460481756,10.4337491 0,10.587243 0,10.7484116 C0,12.9510494 1.3277224,14.8390246 3.22337229,15.6755664 L3.22337229,31.8768495 C3.22337229,32.3833795 3.63780587,32.7978131 4.1443358,32.7978131 L9.2326592,32.7978131 C9.2403339,32.7978131 9.24800859,32.7978131 9.25568329,32.7978131 L16.3931505,32.7978131 C16.4008252,32.7978131 16.4084999,32.7978131 16.4161746,32.7978131 L33.4079514,32.7978131 C33.9144813,32.7978131 34.3289149,32.3833795 34.3289149,31.8768495 L34.3289149,15.7906869 C34.3289149,15.7523134 34.3289149,15.7216146 34.3212402,15.6909158 C36.2245648,14.854374 37.5599619,12.9587241 37.5599619,10.7484116 Z M7.03769617,1.85343907 L30.514591,1.85343907 L34.881493,9.53580969 L2.67846888,9.53580969 L7.03769617,1.85343907 Z M26.7309659,11.370062 C26.4393275,13.0277963 24.9888099,14.2864465 23.246654,14.2864465 C21.504498,14.2864465 20.0539805,13.0277963 19.762342,11.370062 L26.7309659,11.370062 Z M17.8052946,11.370062 C17.5136561,13.0277963 16.0631386,14.2864465 14.3209826,14.2864465 C12.5788266,14.2864465 11.1283091,13.0277963 10.828996,11.370062 L17.8052946,11.370062 Z M1.90332459,11.370062 L8.87962319,11.370062 C8.58798474,13.0277963 7.12979252,14.2864465 5.38763654,14.2864465 C3.64548057,14.2941212 2.19496304,13.0277963 1.90332459,11.370062 Z M15.472187,30.955886 L10.1766468,30.955886 L10.1766468,21.0171548 C10.1766468,20.2957334 10.7599237,19.7047818 11.4890198,19.7047818 L14.1674887,19.7047818 C14.8889101,19.7047818 15.4798617,20.2880587 15.4798617,21.0171548 L15.4798617,30.955886 L15.472187,30.955886 Z M32.4869879,30.955886 L17.314114,30.955886 L17.314114,21.0171548 C17.314114,19.2826735 15.90197,17.8628548 14.159814,17.8628548 L11.4813451,17.8628548 C9.74686383,17.8628548 8.32704508,19.2749988 8.32704508,21.0171548 L8.32704508,30.9635607 L5.06529931,30.9635607 L5.06529931,16.1283735 C5.17274506,16.1360482 5.2801908,16.1360482 5.38763654,16.1360482 C7.24491296,16.1360482 8.88729789,15.1920606 9.85430957,13.7568925 C10.8213213,15.1920606 12.4637062,16.1360482 14.3209826,16.1360482 C16.178259,16.1360482 17.8129693,15.1920606 18.7876556,13.7568925 C19.7546673,15.1920606 21.3970523,16.1360482 23.246654,16.1360482 C25.1039304,16.1360482 26.7386406,15.1920606 27.7056523,13.7568925 C28.672664,15.1920606 30.3150489,16.1360482 32.1723253,16.1360482 C32.2797711,16.1360482 32.3795421,16.1283735 32.4869879,16.1283735 L32.4869879,30.955886 L32.4869879,30.955886 Z M32.1723253,14.2941212 C30.4301694,14.2941212 28.9796518,13.035471 28.6880134,11.3777367 L35.664312,11.3777367 C35.3649988,13.0277963 33.9144813,14.2941212 32.1723253,14.2941212 Z" id="Shape"></path>
            </g>
        </g>
    </g>
</svg>