<?xml version="1.0" encoding="UTF-8"?>
<svg width="34px" height="34px" viewBox="0 0 34 34" version="1.1" xmlns="http://www.w3.org/2000/svg" xmlns:xlink="http://www.w3.org/1999/xlink">
    <!-- Generator: Sketch 46.2 (44496) - http://www.bohemiancoding.com/sketch -->
    <title>plan</title>
    <desc>Created with Sketch.</desc>
    <defs></defs>
    <g id="New-Version" stroke="none" stroke-width="1" fill="none" fill-rule="evenodd" opacity="0.300000012">
        <g id="Numbers-/-Index" transform="translate(-935.000000, -684.000000)" fill-rule="nonzero" fill="#000000">
            <g id="plan" transform="translate(935.000000, 684.062500)">
                <path d="M7.90157978,3.95078989 C7.90157978,1.77277586 6.12880391,0 3.95078989,0 C1.77277586,0 0,1.77277586 0,3.95078989 L0,29.3487249 L0.00169319567,29.3487249 C0.00169319567,29.3600129 0,29.3713008 0,29.3825888 C0,31.5425421 1.7569727,33.2995148 3.91692597,33.2995148 L33.2995148,33.2995148 L33.2995148,3.95078989 L7.90157978,3.95078989 Z M1.12879711,3.95078989 C1.12879711,2.58438099 2.10577101,1.44260271 3.3976793,1.18467257 C3.42702803,1.46912944 3.65899583,1.69319567 3.95078989,1.69319567 C4.24258394,1.69319567 4.47455175,1.46912944 4.50390047,1.18467257 C5.79580877,1.44260271 6.77278267,2.58438099 6.77278267,3.95078989 L6.77278267,26.585994 C6.0554321,25.8534046 5.05531786,25.397935 3.95078989,25.397935 C3.81364104,25.397935 3.67874978,25.4052722 3.54498733,25.4188177 C3.48516108,25.4250261 3.42646363,25.4368785 3.36720178,25.4459089 C3.29495877,25.4566324 3.22215135,25.4650984 3.15103713,25.4797728 C3.07315013,25.4955759 2.99808513,25.5181519 2.92245572,25.5384702 C2.87278865,25.5520158 2.82199278,25.562175 2.7728901,25.5774137 C2.67863554,25.6073269 2.58720298,25.642884 2.49577041,25.6795699 C2.46811488,25.6908578 2.43876616,25.6993238 2.41111063,25.7111762 C2.29879532,25.7585857 2.1898664,25.8127679 2.08263067,25.8703366 C2.07811548,25.8725942 2.07303589,25.8748518 2.06852071,25.8771094 C1.7208512,26.0661829 1.40365921,26.3054879 1.12879711,26.585994 L1.12879711,3.95078989 Z M32.1707177,32.1707177 L3.91692597,32.1707177 C2.37950431,32.1707177 1.12879711,30.9200105 1.12879711,29.3487249 C1.12879711,27.7926781 2.39474307,26.5267321 3.95078989,26.5267321 C5.50683671,26.5267321 6.77278267,27.7926781 6.77278267,29.3487249 L7.90157978,29.3487249 L7.90157978,5.079587 L32.1707177,5.079587 L32.1707177,32.1707177 Z" id="Shape"></path>
                <path d="M25.9719283,11.8529341 C26.0712625,11.9223551 26.1847066,11.956219 26.2970219,11.956219 C26.474243,11.956219 26.6486422,11.8732524 26.7586999,11.7174784 C26.9381787,11.4629347 26.877788,11.11075 26.6232443,10.9301424 L25.701017,10.2793909 C25.4453445,10.1004765 25.0942886,10.1608672 24.913681,10.4148465 C24.7342023,10.6693903 24.7945929,11.021575 25.0491367,11.2021825 L25.9719283,11.8529341 Z" id="Shape"></path>
                <path d="M28.7391744,13.8057531 C28.8379442,13.8751741 28.9513883,13.909038 29.0637036,13.909038 C29.2409248,13.909038 29.4153239,13.8260714 29.5253816,13.669733 C29.7048604,13.4151893 29.6439053,13.0630046 29.3893616,12.8829614 L28.4665699,12.2322099 C28.2120262,12.0532955 27.8604059,12.1136862 27.6797984,12.3682299 C27.5003196,12.6227737 27.5612747,12.9749584 27.8158184,13.1550015 L28.7391744,13.8057531 Z" id="Shape"></path>
                <path d="M20.8827466,23.1403408 C20.8827466,23.4524532 21.1350327,23.7047393 21.4471451,23.7047393 L22.5759422,23.7047393 C22.8880546,23.7047393 23.1403408,23.4524532 23.1403408,23.1403408 C23.1403408,22.8282284 22.8880546,22.5759422 22.5759422,22.5759422 L21.4471451,22.5759422 C21.1350327,22.5759422 20.8827466,22.8282284 20.8827466,23.1403408 Z" id="Shape"></path>
                <path d="M28.7843263,15.4549256 L28.7843263,16.5837228 C28.7843263,16.8958352 29.0366125,17.1481213 29.3487249,17.1481213 C29.6608373,17.1481213 29.9131234,16.8958352 29.9131234,16.5837228 L29.9131234,15.4549256 C29.9131234,15.1428132 29.6608373,14.8905271 29.3487249,14.8905271 C29.0366125,14.8905271 28.7843263,15.1428132 28.7843263,15.4549256 Z" id="Shape"></path>
                <path d="M23.2052466,9.90011506 C23.3045808,9.96953608 23.4180249,10.0034 23.5303402,10.0034 C23.7075613,10.0034 23.8819605,9.92043341 23.9920182,9.76465941 C24.1714969,9.51011566 24.1111063,9.15793096 23.8565625,8.97732342 L22.9343353,8.32657189 C22.6786628,8.14765755 22.3276069,8.20804819 22.1469993,8.46202754 C21.9675206,8.71657129 22.0279112,9.06875599 22.282455,9.24936353 L23.2052466,9.90011506 Z" id="Shape"></path>
                <path d="M24.2691379,23.1403408 C24.2691379,23.4524532 24.521424,23.7047393 24.8335364,23.7047393 L25.9623335,23.7047393 C26.274446,23.7047393 26.5267321,23.4524532 26.5267321,23.1403408 C26.5267321,22.8282284 26.274446,22.5759422 25.9623335,22.5759422 L24.8335364,22.5759422 C24.521424,22.5759422 24.2691379,22.8282284 24.2691379,23.1403408 Z" id="Shape"></path>
                <path d="M16.3675581,23.1403408 C16.3675581,22.8282284 16.115272,22.5759422 15.8031596,22.5759422 L14.6743624,22.5759422 C14.36225,22.5759422 14.1099639,22.8282284 14.1099639,23.1403408 C14.1099639,23.4524532 14.36225,23.7047393 14.6743624,23.7047393 L15.8031596,23.7047393 C16.115272,23.7047393 16.3675581,23.4524532 16.3675581,23.1403408 Z" id="Shape"></path>
                <path d="M29.3487249,20.5345126 C29.6608373,20.5345126 29.9131234,20.2822265 29.9131234,19.9701141 L29.9131234,18.841317 C29.9131234,18.5292046 29.6608373,18.2769184 29.3487249,18.2769184 C29.0366125,18.2769184 28.7843263,18.5292046 28.7843263,18.841317 L28.7843263,19.9701141 C28.7843263,20.2822265 29.0366125,20.5345126 29.3487249,20.5345126 Z" id="Shape"></path>
                <path d="M20.4385649,7.94729606 C20.537899,8.01671708 20.6513431,8.05058099 20.7636585,8.05058099 C20.9408796,8.05058099 21.1152788,7.96761441 21.2253365,7.81184041 C21.4048152,7.55729666 21.3444246,7.20511196 21.0898808,7.02450442 L20.1676536,6.37375289 C19.911981,6.19540294 19.5609251,6.25579359 19.3803176,6.50920854 C19.2008389,6.76375229 19.2612295,7.11593699 19.5157732,7.29654452 L20.4385649,7.94729606 Z" id="Shape"></path>
                <path d="M28.7843263,22.5759422 L28.2199278,22.5759422 C27.9078154,22.5759422 27.6555292,22.8282284 27.6555292,23.1403408 C27.6555292,23.4524532 27.9078154,23.7047393 28.2199278,23.7047393 L29.9131234,23.7047393 L29.9131234,22.2277083 C29.9131234,21.9155959 29.6608373,21.6633098 29.3487249,21.6633098 C29.0366125,21.6633098 28.7843263,21.9155959 28.7843263,22.2277083 L28.7843263,22.5759422 Z" id="Shape"></path>
                <path d="M11.2879711,23.7047393 L12.4167682,23.7047393 C12.7288806,23.7047393 12.9811668,23.4524532 12.9811668,23.1403408 C12.9811668,22.8282284 12.7288806,22.5759422 12.4167682,22.5759422 L11.2879711,22.5759422 C10.9758587,22.5759422 10.7235726,22.8282284 10.7235726,23.1403408 C10.7235726,23.4524532 10.9758587,23.7047393 11.2879711,23.7047393 Z" id="Shape"></path>
                <path d="M10.159174,15.8031596 C10.4712864,15.8031596 10.7235726,15.5508734 10.7235726,15.238761 L10.7235726,14.1099639 C10.7235726,13.7978515 10.4712864,13.5455653 10.159174,13.5455653 C9.8470616,13.5455653 9.59477544,13.7978515 9.59477544,14.1099639 L9.59477544,15.238761 C9.59477544,15.5508734 9.8470616,15.8031596 10.159174,15.8031596 Z" id="Shape"></path>
                <path d="M11.5430793,13.1335544 C11.6553946,13.1335544 11.7688387,13.0996905 11.8681728,13.0302694 L12.7904001,12.3795179 C13.0449438,12.1994748 13.1058989,11.8472901 12.9258557,11.5921819 C12.746377,11.3382026 12.3947567,11.2772475 12.1385197,11.4567263 L11.2162925,12.1074778 C10.9617487,12.287521 10.9007937,12.6397056 11.0808368,12.8948138 C11.191459,13.0500234 11.3658581,13.1335544 11.5430793,13.1335544 Z" id="Shape"></path>
                <path d="M14.309761,11.1807354 C14.4220763,11.1807354 14.5355204,11.1468715 14.6348545,11.0774504 L15.5570818,10.4266989 C15.8116255,10.2466558 15.8725806,9.89447108 15.6925374,9.63936293 C15.5124943,9.38594798 15.1614384,9.32499293 14.9052015,9.50390727 L13.9829742,10.1546588 C13.7284305,10.3347019 13.6674754,10.6868866 13.8475186,10.9419948 C13.9575763,11.0972044 14.1319754,11.1807354 14.309761,11.1807354 Z" id="Shape"></path>
                <path d="M10.159174,19.1895509 C10.4712864,19.1895509 10.7235726,18.9372647 10.7235726,18.6251523 L10.7235726,17.4963552 C10.7235726,17.1842428 10.4712864,16.9319567 10.159174,16.9319567 C9.8470616,16.9319567 9.59477544,17.1842428 9.59477544,17.4963552 L9.59477544,18.6251523 C9.59477544,18.9372647 9.8470616,19.1895509 10.159174,19.1895509 Z" id="Shape"></path>
                <path d="M17.0764427,9.22791638 C17.188758,9.22791638 17.3022021,9.19405247 17.4015363,9.12463145 L18.3237635,8.47387991 C18.5783072,8.29383677 18.6392623,7.94165207 18.4592192,7.68654393 C18.279176,7.43312898 17.9286845,7.37104513 17.6718832,7.55108827 L16.7496559,8.20183981 C16.4951122,8.38188295 16.4341571,8.73406765 16.6142003,8.98917579 C16.7248224,9.1443854 16.8986571,9.22791638 17.0764427,9.22791638 Z" id="Shape"></path>
                <path d="M17.4963552,23.1403408 C17.4963552,23.4524532 17.7486414,23.7047393 18.0607538,23.7047393 L19.1895509,23.7047393 C19.5016633,23.7047393 19.7539494,23.4524532 19.7539494,23.1403408 C19.7539494,22.8282284 19.5016633,22.5759422 19.1895509,22.5759422 L18.0607538,22.5759422 C17.7486414,22.5759422 17.4963552,22.8282284 17.4963552,23.1403408 Z" id="Shape"></path>
                <path d="M10.159174,22.5759422 C10.4712864,22.5759422 10.7235726,22.3236561 10.7235726,22.0115437 L10.7235726,20.8827466 C10.7235726,20.5706341 10.4712864,20.318348 10.159174,20.318348 C9.8470616,20.318348 9.59477544,20.5706341 9.59477544,20.8827466 L9.59477544,22.0115437 C9.59477544,22.3236561 9.8470616,22.5759422 10.159174,22.5759422 Z" id="Shape"></path>
                <path d="M23.1403408,30.477522 L30.477522,30.477522 L30.477522,25.9623335 L23.1403408,25.9623335 L23.1403408,30.477522 Z M24.2691379,27.0911307 L29.3487249,27.0911307 L29.3487249,29.3487249 L24.2691379,29.3487249 L24.2691379,27.0911307 Z" id="Shape"></path>
                <path d="M12.4167682,16.9319567 L12.4167682,18.0607538 C12.4167682,18.3728662 12.6690544,18.6251523 12.9811668,18.6251523 C13.2932792,18.6251523 13.5455653,18.3728662 13.5455653,18.0607538 L13.5455653,16.9319567 C13.5455653,16.6198443 13.2932792,16.3675581 12.9811668,16.3675581 C12.6690544,16.3675581 12.4167682,16.6198443 12.4167682,16.9319567 Z" id="Shape"></path>
                <path d="M17.4963552,15.238761 C17.1842428,15.238761 16.9319567,15.4910472 16.9319567,15.8031596 L16.9319567,16.9319567 C16.9319567,17.2440691 17.1842428,17.4963552 17.4963552,17.4963552 C17.8084676,17.4963552 18.0607538,17.2440691 18.0607538,16.9319567 L18.0607538,15.8031596 C18.0607538,15.4910472 17.8084676,15.238761 17.4963552,15.238761 Z" id="Shape"></path>
                <path d="M14.1099639,16.3675581 L15.238761,16.3675581 C15.5508734,16.3675581 15.8031596,16.115272 15.8031596,15.8031596 C15.8031596,15.4910472 15.5508734,15.238761 15.238761,15.238761 L14.1099639,15.238761 C13.7978515,15.238761 13.5455653,15.4910472 13.5455653,15.8031596 C13.5455653,16.115272 13.7978515,16.3675581 14.1099639,16.3675581 Z" id="Shape"></path>
                <path d="M14.6743624,20.318348 C14.6743624,20.0062356 14.4220763,19.7539494 14.1099639,19.7539494 L12.9811668,19.7539494 C12.6690544,19.7539494 12.4167682,20.0062356 12.4167682,20.318348 C12.4167682,20.6304604 12.6690544,20.8827466 12.9811668,20.8827466 L14.1099639,20.8827466 C14.4220763,20.8827466 14.6743624,20.6304604 14.6743624,20.318348 Z" id="Shape"></path>
                <path d="M16.3675581,20.8827466 L17.4963552,20.8827466 C17.8084676,20.8827466 18.0607538,20.6304604 18.0607538,20.318348 L18.0607538,19.1895509 C18.0607538,18.8774385 17.8084676,18.6251523 17.4963552,18.6251523 C17.1842428,18.6251523 16.9319567,18.8774385 16.9319567,19.1895509 L16.9319567,19.7539494 L16.3675581,19.7539494 C16.0554457,19.7539494 15.8031596,20.0062356 15.8031596,20.318348 C15.8031596,20.6304604 16.0554457,20.8827466 16.3675581,20.8827466 Z" id="Shape"></path>
                <path d="M22.5759422,15.8031596 C22.5759422,16.115272 22.8282284,16.3675581 23.1403408,16.3675581 L24.2691379,16.3675581 C24.5812503,16.3675581 24.8335364,16.115272 24.8335364,15.8031596 C24.8335364,15.4910472 24.5812503,15.238761 24.2691379,15.238761 L23.1403408,15.238761 C22.8282284,15.238761 22.5759422,15.4910472 22.5759422,15.8031596 Z" id="Shape"></path>
                <path d="M25.9623335,15.8031596 L25.9623335,16.9319567 C25.9623335,17.2440691 26.2146197,17.4963552 26.5267321,17.4963552 C26.8388445,17.4963552 27.0911307,17.2440691 27.0911307,16.9319567 L27.0911307,15.8031596 C27.0911307,15.4910472 26.8388445,15.238761 26.5267321,15.238761 C26.2146197,15.238761 25.9623335,15.4910472 25.9623335,15.8031596 Z" id="Shape"></path>
                <path d="M26.5267321,20.8827466 C26.8388445,20.8827466 27.0911307,20.6304604 27.0911307,20.318348 L27.0911307,19.1895509 C27.0911307,18.8774385 26.8388445,18.6251523 26.5267321,18.6251523 C26.2146197,18.6251523 25.9623335,18.8774385 25.9623335,19.1895509 L25.9623335,19.7539494 L25.397935,19.7539494 C25.0858226,19.7539494 24.8335364,20.0062356 24.8335364,20.318348 C24.8335364,20.6304604 25.0858226,20.8827466 25.397935,20.8827466 L26.5267321,20.8827466 Z" id="Shape"></path>
                <path d="M22.0115437,18.6251523 C22.3236561,18.6251523 22.5759422,18.3728662 22.5759422,18.0607538 L22.5759422,16.9319567 C22.5759422,16.6198443 22.3236561,16.3675581 22.0115437,16.3675581 C21.6994313,16.3675581 21.4471451,16.6198443 21.4471451,16.9319567 L21.4471451,18.0607538 C21.4471451,18.3728662 21.6994313,18.6251523 22.0115437,18.6251523 Z" id="Shape"></path>
                <path d="M22.0115437,20.8827466 L23.1403408,20.8827466 C23.4524532,20.8827466 23.7047393,20.6304604 23.7047393,20.318348 C23.7047393,20.0062356 23.4524532,19.7539494 23.1403408,19.7539494 L22.0115437,19.7539494 C21.6994313,19.7539494 21.4471451,20.0062356 21.4471451,20.318348 C21.4471451,20.6304604 21.6994313,20.8827466 22.0115437,20.8827466 Z" id="Shape"></path>
                <path d="M21.4471451,25.9623335 L18.6251523,25.9623335 C18.3130399,25.9623335 18.0607538,26.2146197 18.0607538,26.5267321 C18.0607538,26.8388445 18.3130399,27.0911307 18.6251523,27.0911307 L21.4471451,27.0911307 C21.7592575,27.0911307 22.0115437,26.8388445 22.0115437,26.5267321 C22.0115437,26.2146197 21.7592575,25.9623335 21.4471451,25.9623335 Z" id="Shape"></path>
                <path d="M21.4471451,27.6555292 L17.4963552,27.6555292 C17.1842428,27.6555292 16.9319567,27.9078154 16.9319567,28.2199278 C16.9319567,28.5320402 17.1842428,28.7843263 17.4963552,28.7843263 L21.4471451,28.7843263 C21.7592575,28.7843263 22.0115437,28.5320402 22.0115437,28.2199278 C22.0115437,27.9078154 21.7592575,27.6555292 21.4471451,27.6555292 Z" id="Shape"></path>
                <path d="M21.4471451,29.3487249 L15.8031596,29.3487249 C15.4910472,29.3487249 15.238761,29.601011 15.238761,29.9131234 C15.238761,30.2252358 15.4910472,30.477522 15.8031596,30.477522 L21.4471451,30.477522 C21.7592575,30.477522 22.0115437,30.2252358 22.0115437,29.9131234 C22.0115437,29.601011 21.7592575,29.3487249 21.4471451,29.3487249 Z" id="Shape"></path>
                <circle id="Oval" cx="2.25759422" cy="2.82199278" r="1"></circle>
                <circle id="Oval" cx="5.64398555" cy="2.82199278" r="1"></circle>
                <circle id="Oval" cx="3.95078989" cy="4.51518844" r="1"></circle>
                <circle id="Oval" cx="2.25759422" cy="6.20838411" r="1"></circle>
                <circle id="Oval" cx="5.64398555" cy="6.20838411" r="1"></circle>
                <circle id="Oval" cx="2.25759422" cy="9.59477544" r="1"></circle>
                <circle id="Oval" cx="5.64398555" cy="9.59477544" r="1"></circle>
                <circle id="Oval" cx="3.95078989" cy="7.90157978" r="1"></circle>
                <circle id="Oval" cx="3.95078989" cy="11.2879711" r="1"></circle>
                <circle id="Oval" cx="2.25759422" cy="12.9811668" r="1"></circle>
                <circle id="Oval" cx="5.64398555" cy="12.9811668" r="1"></circle>
                <circle id="Oval" cx="2.25759422" cy="16.3675581" r="1"></circle>
                <circle id="Oval" cx="5.64398555" cy="16.3675581" r="1"></circle>
                <circle id="Oval" cx="3.95078989" cy="14.6743624" r="1"></circle>
                <circle id="Oval" cx="3.95078989" cy="18.0607538" r="1"></circle>
                <circle id="Oval" cx="2.25759422" cy="19.7539494" r="1"></circle>
                <circle id="Oval" cx="5.64398555" cy="19.7539494" r="1"></circle>
                <circle id="Oval" cx="2.25759422" cy="23.1403408" r="1"></circle>
                <circle id="Oval" cx="5.64398555" cy="23.1403408" r="1"></circle>
                <circle id="Oval" cx="3.95078989" cy="21.4471451" r="1"></circle>
                <circle id="Oval" cx="3.95078989" cy="24.8335364" r="1"></circle>
            </g>
        </g>
    </g>
</svg>