<?xml version="1.0" encoding="UTF-8"?>
<svg width="28px" height="28px" viewBox="0 0 28 28" version="1.1" xmlns="http://www.w3.org/2000/svg" xmlns:xlink="http://www.w3.org/1999/xlink">
    <!-- Generator: Sketch 46.2 (44496) - http://www.bohemiancoding.com/sketch -->
    <title>time</title>
    <desc>Created with Sketch.</desc>
    <defs></defs>
    <g id="New-Version" stroke="none" stroke-width="1" fill="none" fill-rule="evenodd" opacity="0.300000012">
        <g id="Numbers-/-Index" transform="translate(-212.000000, -349.000000)" fill-rule="nonzero" fill="#000000">
            <g id="time" transform="translate(212.000000, 349.347301)">
                <path d="M13.5890657,0 C6.09605488,0 0,6.09605488 0,13.5890657 C0,21.0820765 6.09605488,27.1781314 13.5890657,27.1781314 C21.0820765,27.1781314 27.1781314,21.0820765 27.1781314,13.5890657 C27.1781314,6.09605488 21.0820765,0 13.5890657,0 Z M13.5890657,26.2721937 C6.59567952,26.2721937 0.905937714,20.5824519 0.905937714,13.5890657 C0.905937714,6.59567952 6.59567952,0.905937714 13.5890657,0.905937714 C20.5824519,0.905937714 26.2721937,6.59567952 26.2721937,13.5890657 C26.2721937,20.5824519 20.5824519,26.2721937 13.5890657,26.2721937 Z" id="Shape"></path>
                <path d="M14.0420346,11.7867026 L14.0420346,7.19269248 C14.0420346,6.9422007 13.8391045,6.73972362 13.5890657,6.73972362 C13.3390269,6.73972362 13.1360968,6.9422007 13.1360968,7.19269248 L13.1360968,11.7867026 C12.5023934,11.9515833 12.0063925,12.4475842 11.8415119,13.0812876 L8.60640828,13.0812876 C8.35636947,13.0812876 8.15343942,13.2837647 8.15343942,13.5342565 C8.15343942,13.7847483 8.35636947,13.9872253 8.60640828,13.9872253 L11.8415119,13.9872253 C12.0439889,14.7663318 12.7474496,15.3461319 13.5890657,15.3461319 C14.588315,15.3461319 15.4009411,14.5335058 15.4009411,13.5342565 C15.4009411,12.6921874 14.821141,11.9891797 14.0420346,11.7867026 Z M13.5890657,14.4401942 C13.0894411,14.4401942 12.683128,14.0338811 12.683128,13.5342565 C12.683128,13.0346318 13.0894411,12.6283188 13.5890657,12.6283188 C14.0886904,12.6283188 14.4950034,13.0346318 14.4950034,13.5342565 C14.4950034,14.0338811 14.0886904,14.4401942 13.5890657,14.4401942 Z" id="Shape"></path>
                <path d="M13.5890657,4.47487934 C13.8391045,4.47487934 14.0420346,4.27240226 14.0420346,4.02191048 L14.0420346,3.56894162 C14.0420346,3.31844985 13.8391045,3.11597277 13.5890657,3.11597277 C13.3390269,3.11597277 13.1360968,3.31844985 13.1360968,3.56894162 L13.1360968,4.02191048 C13.1360968,4.27240226 13.3390269,4.47487934 13.5890657,4.47487934 Z" id="Shape"></path>
                <path d="M13.5890657,22.5936336 C13.3390269,22.5936336 13.1360968,22.7961107 13.1360968,23.0466025 L13.1360968,23.4995713 C13.1360968,23.7500631 13.3390269,23.9525402 13.5890657,23.9525402 C13.8391045,23.9525402 14.0420346,23.7500631 14.0420346,23.4995713 L14.0420346,23.0466025 C14.0420346,22.7961107 13.8391045,22.5936336 13.5890657,22.5936336 Z" id="Shape"></path>
                <path d="M23.5543806,13.0812876 L23.1014117,13.0812876 C22.8513729,13.0812876 22.6484428,13.2837647 22.6484428,13.5342565 C22.6484428,13.7847483 22.8513729,13.9872253 23.1014117,13.9872253 L23.5543806,13.9872253 C23.8044194,13.9872253 24.0073494,13.7847483 24.0073494,13.5342565 C24.0073494,13.2837647 23.8044194,13.0812876 23.5543806,13.0812876 Z" id="Shape"></path>
                <path d="M4.07671971,13.0812876 L3.62375085,13.0812876 C3.37371205,13.0812876 3.170782,13.2837647 3.170782,13.5342565 C3.170782,13.7847483 3.37371205,13.9872253 3.62375085,13.9872253 L4.07671971,13.9872253 C4.32675852,13.9872253 4.52968857,13.7847483 4.52968857,13.5342565 C4.52968857,13.2837647 4.32675852,13.0812876 4.07671971,13.0812876 Z" id="Shape"></path>
                <path d="M20.3152003,6.16717099 L19.9949513,6.48741997 C19.8178405,6.66453079 19.8178405,6.95080711 19.9949513,7.12791793 C20.0832802,7.21624686 20.1992402,7.26063781 20.3152003,7.26063781 C20.4311603,7.26063781 20.5471203,7.21624686 20.6354492,7.12791793 L20.9556982,6.80766895 C21.132809,6.63055813 21.132809,6.34428181 20.9556982,6.16717099 C20.7785874,5.99006016 20.4923111,5.99051313 20.3152003,6.16717099 Z" id="Shape"></path>
                <path d="M6.54268217,19.940142 L6.22243319,20.260391 C6.04532236,20.4375019 6.04532236,20.7237782 6.22243319,20.900889 C6.31076211,20.9892179 6.42672214,21.0336089 6.54268217,21.0336089 C6.6586422,21.0336089 6.77460222,20.9892179 6.86293115,20.900889 L7.18318013,20.58064 C7.36029096,20.4035292 7.36029096,20.1172529 7.18318013,19.940142 C7.00606931,19.7630312 6.71934002,19.7634842 6.54268217,19.940142 Z" id="Shape"></path>
                <path d="M20.6354492,19.940142 C20.4583384,19.7630312 20.1720621,19.7630312 19.9949513,19.940142 C19.8178405,20.1172529 19.8178405,20.4035292 19.9949513,20.58064 L20.3152003,20.900889 C20.4035292,20.9892179 20.5194892,21.0336089 20.6354492,21.0336089 C20.7514093,21.0336089 20.8673693,20.9892179 20.9556982,20.900889 C21.132809,20.7237782 21.132809,20.4375019 20.9556982,20.260391 L20.6354492,19.940142 Z" id="Shape"></path>
                <path d="M6.86293115,6.16717099 C6.68582033,5.99006016 6.39954401,5.99006016 6.22243319,6.16717099 C6.04532236,6.34428181 6.04532236,6.63055813 6.22243319,6.80766895 L6.54268217,7.12791793 C6.6310111,7.21624686 6.74697112,7.26063781 6.86293115,7.26063781 C6.97889118,7.26063781 7.09485121,7.21624686 7.18318013,7.12791793 C7.36029096,6.95080711 7.36029096,6.66453079 7.18318013,6.48741997 L6.86293115,6.16717099 Z" id="Shape"></path>
            </g>
        </g>
    </g>
</svg>