<?xml version="1.0" encoding="UTF-8"?>
<svg width="38px" height="29px" viewBox="0 0 38 29" version="1.1" xmlns="http://www.w3.org/2000/svg" xmlns:xlink="http://www.w3.org/1999/xlink">
    <!-- Generator: Sketch 46.2 (44496) - http://www.bohemiancoding.com/sketch -->
    <title>trees</title>
    <desc>Created with Sketch.</desc>
    <defs></defs>
    <g id="New-Version" stroke="none" stroke-width="1" fill="none" fill-rule="evenodd" opacity="0.300000012">
        <g id="Numbers-/-Index" transform="translate(-213.000000, -491.000000)" fill-rule="nonzero" fill="#000000">
            <g id="Group-4" transform="translate(213.000000, 491.000000)">
                <g id="trees" transform="translate(0.888985, 0.217665)">
                    <path d="M35.8085845,27.5348695 L28.0380013,27.5348695 L28.0380013,23.8501689 C29.7348616,23.6219383 31.2387789,22.5621743 32.1132834,20.9555248 C33.2751394,20.6899435 34.3306348,20.017275 35.1114424,19.038402 C35.9590544,17.975721 36.4259027,16.6175782 36.4259027,15.2141165 C36.4259027,13.0791501 35.3327009,11.1031199 33.6126475,10.0767225 C33.4334353,6.51645321 30.6889054,3.67765725 27.3463373,3.67765725 C26.2941857,3.67765725 25.2531326,3.96401266 24.3357993,4.50577576 C24.0503687,4.67431638 23.9556046,5.04227419 24.1241453,5.32763359 C24.292757,5.61313527 24.660786,5.7078282 24.9460742,5.53928759 C25.6787172,5.10658855 26.5086855,4.87793108 27.3463373,4.87793108 C30.1396721,4.87793108 32.4164289,7.3717488 32.4216936,10.4370679 C32.4221204,10.6629507 32.5492551,10.8694824 32.7508066,10.9715032 C34.2542259,11.7323904 35.2255577,13.3976627 35.2255577,15.2140454 C35.2255577,17.5064538 33.6731201,19.4912348 31.6143492,19.8308061 C31.4215484,19.8626787 31.2563515,19.9862562 31.1714765,20.1623381 C30.5276215,21.4975725 29.3642715,22.4001789 28.0380013,22.6351682 L28.0380013,17.3246093 L30.991624,14.6085371 C31.2355774,14.3841482 31.2515137,14.0045228 31.0271249,13.7605693 C30.802665,13.5166158 30.4231106,13.5006084 30.1791572,13.7250684 L28.0380013,15.6939842 L28.0380013,11.6877118 C28.0380013,11.356251 27.7692896,11.0875393 27.4378288,11.0875393 C27.1063679,11.0875393 26.8376563,11.356251 26.8376563,11.6877118 L26.8376563,18.9515349 L24.6965004,16.9826191 C24.4525469,16.7581591 24.0728503,16.7741666 23.8485326,17.01812 C23.6241438,17.2620735 23.6400801,17.641699 23.8840336,17.8660878 L26.8377274,20.58216 L26.8377274,22.6632702 C25.4225269,22.4809276 24.1744442,21.5445276 23.5047638,20.1276197 C23.4247266,19.9582253 23.2701303,19.8359285 23.0869339,19.7970837 C21.0954654,19.3739892 19.6500998,17.4466216 19.6500998,15.2140454 C19.6500998,13.4536532 20.5378372,11.8603788 21.9668396,11.0562359 C22.1580752,10.9485947 22.2753209,10.7451934 22.2726174,10.5258559 C22.2724751,10.5092081 22.2719059,10.4927027 22.2713368,10.4762684 C22.2709811,10.466735 22.2706254,10.4572729 22.2706254,10.4478107 C22.2706254,9.19759361 22.6395792,8.01631528 23.337575,7.03182181 C23.5293086,6.76140269 23.4654922,6.38675732 23.1951443,6.19516599 C22.9247251,6.00336122 22.5500798,6.06731986 22.3584884,6.33759668 C21.5633097,7.45911389 21.1219311,8.78773186 21.0746913,10.1944662 C19.4470543,11.2558665 18.4498971,13.1463814 18.4498971,15.2141165 C18.4498971,17.9036519 20.157358,20.2464305 22.5505066,20.9015263 C23.4512634,22.5979598 25.0444667,23.695786 26.8378697,23.8715122 L26.8378697,27.5348695 L26.4577462,27.5348695 C26.369314,25.9642189 25.2956768,24.5978234 23.8005814,24.1364532 C23.3314566,23.1383712 22.4202416,22.4146924 21.3487388,22.1800588 C20.9974287,20.5832272 19.5599601,19.3924867 17.8848699,19.3924867 C16.5931757,19.3924867 15.4219287,20.0867118 14.7975672,21.1917235 C13.567982,21.2384653 12.4624722,21.8953397 11.827439,22.9129864 C11.4316639,21.8241955 10.417859,21.0314356 9.2308891,20.9462049 L9.2308891,19.3682976 C10.851056,19.1430551 12.2856789,18.1296771 13.1238998,16.5966618 C14.2373778,16.3394044 15.2486214,15.693415 15.9972719,14.7548807 C16.8124422,13.7330365 17.2613621,12.4270424 17.2613621,11.0775792 C17.2613621,9.02947986 16.214902,7.13327344 14.5672734,6.1441556 C14.388488,2.7284513 11.7525242,0.00718556443 8.54292466,0.00718556443 C7.31177424,0.00718556443 6.127579,0.404241357 5.1182562,1.15559528 C4.85246146,1.3534473 4.7973247,1.72951556 4.99517673,1.99538144 C5.19302876,2.26117618 5.56902586,2.31631294 5.83496289,2.11846091 C6.63547746,1.52241478 7.57187745,1.2074594 8.54292466,1.2074594 C11.2030775,1.2074594 13.3714105,3.58353347 13.3764618,6.50414526 C13.3768886,6.7300281 13.5040233,6.93655972 13.7055748,7.03858051 C15.136427,7.76275734 16.0608748,9.34820589 16.0608748,11.0775792 C16.0608748,13.2599276 14.5837789,15.1493041 12.6249656,15.47237 C12.4322359,15.5042426 12.2669679,15.62782 12.1820929,15.8039019 C11.5741657,17.0645772 10.480039,17.9202997 9.23074681,18.1522298 L9.23074681,13.1095287 L12.0503338,10.5168206 C12.2942873,10.2924317 12.3101525,9.91280628 12.0858348,9.66885281 C11.8615171,9.42482819 11.4818205,9.40889189 11.237867,9.63335185 L9.23074681,11.4789747 L9.23074681,7.70164447 C9.23074681,7.37018363 8.96203516,7.10147198 8.63057432,7.10147198 C8.29911348,7.10147198 8.03040183,7.37018363 8.03040183,7.70164447 L8.03040183,14.5977231 L6.02335274,12.7521002 C5.77932813,12.5276403 5.39970266,12.5436477 5.17538499,12.7876012 C4.95099618,13.0315547 4.96693248,13.4112513 5.21088595,13.6355689 L8.03033069,16.2282771 L8.03033069,18.1803317 C6.69595003,17.9977757 5.52093238,17.1098249 4.8881047,15.7710333 C4.80806748,15.601639 4.65347113,15.4793421 4.4702748,15.4404974 C2.57549127,15.03775 1.20020269,13.2030122 1.20020269,11.0775792 C1.20020269,9.40135061 2.04504009,7.88455621 3.40510381,7.11918689 C3.59619714,7.01161685 3.71344278,6.8085713 3.71088159,6.58930487 C3.7107393,6.57308399 3.71024129,6.55686311 3.70967214,6.54071338 C3.70945871,6.53196264 3.70903184,6.52328305 3.70903184,6.51439002 C3.70903184,5.77207142 3.84584214,5.05422642 4.11562096,4.38084654 C4.19587162,4.18078905 4.28828794,3.98428876 4.39052215,3.79661035 C4.54903144,3.50548828 4.44160369,3.14108767 4.15048162,2.98257839 C3.85935954,2.82392682 3.49488779,2.93142571 3.33644965,3.22254779 C3.21187615,3.45134754 3.09918374,3.69081892 3.00157389,3.93441667 C2.70589859,4.67225319 2.54205349,5.4525628 2.51338238,6.2576306 C0.954541762,7.27975935 0,9.09393651 0,11.0775792 C0,13.6599003 1.63759725,15.9101202 3.93398981,16.5442997 C4.79753813,18.163186 6.31781859,19.213559 8.03040183,19.3893563 L8.03040183,21.1059948 C7.37359855,21.335506 6.81148821,21.7892637 6.44986223,22.3987561 C4.9924021,22.4816391 3.81475212,23.5580508 3.58652152,24.9776622 C2.51160377,25.4550398 1.71244095,26.4018269 1.41818853,27.5347272 L0.60017249,27.5347272 C0.268711652,27.5347272 0,27.8034388 0,28.1348997 C0,28.4663605 0.268711652,28.7350721 0.60017249,28.7350721 L1.91491735,28.7350721 L15.4631924,28.7350721 L25.8392185,28.7350721 L35.8085845,28.7350721 C36.1400453,28.7350721 36.4087569,28.4663605 36.4087569,28.1348997 C36.4087569,27.8034388 36.1399741,27.5348695 35.8085845,27.5348695 Z M2.6769429,27.5348695 C2.96322717,26.8052857 3.56546284,26.2241087 4.33268192,25.975602 C4.5740742,25.8974145 4.74019591,25.6759426 4.74766605,25.4223847 C4.77790233,24.3971256 5.60523826,23.5939787 6.6312088,23.5939787 C6.67233015,23.5939787 6.71729329,23.5958996 6.77257233,23.5999548 C7.02968748,23.6185234 7.27022603,23.4716818 7.37004134,23.2339179 C7.64978035,22.568435 8.29683687,22.1383683 9.01852365,22.1383683 C9.94524803,22.1383683 10.7275497,22.8613357 10.7995476,23.7842894 C10.8225983,24.0788975 11.0565916,24.312962 11.3512709,24.3360127 C11.5149026,24.3487475 11.6731273,24.3846753 11.822957,24.4394564 C11.8235973,24.4396698 11.8241664,24.4400255 11.8248067,24.4402389 C11.8526241,24.4504837 11.8800146,24.4615111 11.9071917,24.4730364 C11.9130255,24.4755265 11.9189305,24.4780165 11.9247643,24.4805777 C11.9501628,24.4916051 11.9752767,24.5032016 11.9999637,24.5153672 C12.0083588,24.5195647 12.0166115,24.5239045 12.0249354,24.5281732 C12.0591557,24.5456747 12.0926646,24.5643144 12.1255333,24.5838791 C12.1434616,24.5946219 12.1615322,24.6050089 12.1790337,24.616392 C12.1923377,24.6249293 12.2051436,24.6341069 12.2180919,24.6428576 C12.2377988,24.6563039 12.2573635,24.6699636 12.2765724,24.6841924 C12.2874575,24.6923029 12.2982002,24.7004133 12.3088007,24.7087372 C12.3319937,24.7268078 12.3549022,24.7454476 12.3771703,24.7647277 C12.3833598,24.7699923 12.3895494,24.7750436 12.3956678,24.7803794 C12.4547886,24.8327415 12.5104945,24.8891589 12.5623587,24.9490623 C12.5671253,24.9546115 12.5718208,24.9601608 12.5765164,24.9657812 C12.5983576,24.9916065 12.6194163,25.0181433 12.6398347,25.0452492 C12.6437476,25.0504428 12.6478028,25.0555651 12.6516446,25.0608298 C12.6982441,25.1242904 12.7407172,25.191166 12.7788505,25.2609585 C12.7839017,25.2702072 12.7886684,25.2796694 12.7936485,25.2890604 C12.8071659,25.3148858 12.820043,25.3412091 12.8323509,25.3678882 C12.8372599,25.3784175 12.8421688,25.3889469 12.8468643,25.3995474 C12.862018,25.4341235 12.8763892,25.4691975 12.8894086,25.5048408 C12.8899066,25.5061214 12.8903334,25.5072597 12.8908314,25.5085403 C12.9611931,25.7029062 13.1266745,25.8474001 13.328724,25.8909404 C13.3823667,25.9024657 13.4349423,25.9165523 13.4866641,25.9324174 C13.5035253,25.937611 13.5198885,25.9439428 13.5366074,25.9495632 C13.5710412,25.9610886 13.6053327,25.9728273 13.6388416,25.9862025 C13.6581928,25.9939572 13.677046,26.0027079 13.6960415,26.0110318 C13.7259932,26.0241223 13.7558027,26.0374263 13.7849718,26.0519397 C13.8046076,26.0616865 13.8236742,26.0722158 13.8428832,26.0826029 C13.8704871,26.097472 13.8978065,26.1128391 13.9244856,26.1289889 C13.9434811,26.1404431 13.962192,26.1523242 13.9807606,26.1644187 C14.0066571,26.1812799 14.0321979,26.1988525 14.0572406,26.2169231 C14.0750978,26.2298002 14.0927416,26.2426773 14.1101008,26.2561236 C14.1349301,26.2753325 14.1589768,26.295324 14.1828102,26.3156001 C14.1989599,26.3293309 14.2153231,26.3429906 14.2310459,26.3572195 C14.2554484,26.3794165 14.2787837,26.4025383 14.3020478,26.4258025 C14.3157787,26.4395333 14.3300075,26.4529796 14.3433115,26.4672084 C14.3694925,26.4950258 14.3942507,26.5240526 14.4187955,26.5532218 C14.4279019,26.5641068 14.4375775,26.5743516 14.4464706,26.5853789 C14.4791969,26.6262157 14.5104292,26.6681908 14.5398829,26.7115176 C14.5460724,26.7205529 14.5514083,26.7302285 14.5573844,26.739335 C14.5800794,26.7739111 14.6022052,26.8088429 14.6227659,26.8447707 C14.6320146,26.8610627 14.6403385,26.877995 14.6491604,26.8945716 C14.6650967,26.9243099 14.6807484,26.9541193 14.6951907,26.9846402 C14.7041549,27.0036357 14.712123,27.0230581 14.7204469,27.042267 C14.7331106,27.0715073 14.7453474,27.1007475 14.7565881,27.1306281 C14.7642717,27.1511176 14.771315,27.1718206 14.7783583,27.1925947 C14.7883896,27.2221907 14.7977806,27.2520001 14.8064602,27.2821652 C14.8125786,27.3035085 14.8182702,27.3249941 14.8237483,27.3465508 C14.8313607,27.3771428 14.8380483,27.4079482 14.8442378,27.4389671 C14.8485776,27.4605949 14.8527751,27.4822227 14.8564035,27.5041352 C14.8581109,27.5143088 14.8589647,27.5246247 14.8604587,27.5348695 L2.6769429,27.5348695 L2.6769429,27.5348695 Z M16.0706216,27.5349406 L16.0706216,27.5348695 C16.0701235,27.5291779 16.0689141,27.5235575 16.0684872,27.5179371 C16.0615862,27.4462949 16.0526932,27.3750796 16.0409544,27.304718 C16.040243,27.3005916 16.0393181,27.2964652 16.0386067,27.2923389 C16.0263699,27.2205544 16.0117853,27.1494813 15.9947107,27.0791908 C15.9939993,27.0761316 15.9934301,27.0730724 15.9926475,27.0701555 C15.9755018,27.0005054 15.9556525,26.9318512 15.9340247,26.8639796 C15.9316769,26.8567229 15.9295426,26.8492528 15.9271237,26.8419961 C15.9057804,26.7766857 15.8820183,26.7123713 15.8564775,26.6487684 C15.852778,26.6395908 15.8492208,26.6303421 15.8454502,26.6212356 C15.8198382,26.5589844 15.7921632,26.4978004 15.7627095,26.4375413 C15.7580851,26.428008 15.7534607,26.4185458 15.748694,26.4090836 C15.7186712,26.3491802 15.6869409,26.2902728 15.6533608,26.2325037 C15.6482384,26.223753 15.643116,26.2151445 15.6379225,26.2063938 C15.6033464,26.1481267 15.567134,26.0909267 15.5289296,26.0350785 C15.5243052,26.0282487 15.5194674,26.0216323 15.5147719,26.0149447 C15.4749312,25.9576025 15.4335964,25.9013274 15.3901984,25.8467598 C15.3874949,25.8433449 15.384578,25.8400723 15.3818745,25.8365862 C15.3364845,25.7799554 15.2893871,25.7247475 15.2402264,25.6713182 C15.2396573,25.6707491 15.2391593,25.6701088 15.2386613,25.6695396 C15.1899986,25.6167506 15.1392728,25.5657402 15.0871241,25.5162239 C15.0825709,25.5118841 15.0781599,25.507402 15.0736067,25.5031333 C15.02345,25.456107 14.9715148,25.4108593 14.9182989,25.3670345 C14.9111845,25.3612006 14.9041412,25.3552245 14.8969557,25.3493196 C14.8445935,25.3069888 14.7908085,25.2663654 14.7356717,25.2273073 C14.7271344,25.22126 14.7185971,25.2152127 14.7100598,25.2092366 C14.6549942,25.170961 14.5985769,25.1343929 14.5409501,25.0996034 C14.5319148,25.0941965 14.5228083,25.0887895 14.513773,25.0834537 C14.4553636,25.0489487 14.395887,25.0161513 14.335201,24.9853458 C14.3268772,24.9810772 14.318411,24.9771642 14.310016,24.9730379 C14.2474091,24.9420901 14.1838062,24.9127076 14.1188515,24.8858151 C14.1130888,24.8833962 14.107255,24.881333 14.1014923,24.8789852 C14.0334073,24.8513101 13.9643263,24.8254848 13.8938935,24.8025052 C13.8936801,24.8024341 13.8933955,24.8022918 13.893111,24.8021495 C13.8900518,24.79596 13.8865657,24.7901973 13.8835065,24.7840789 C13.8592463,24.7354874 13.8338478,24.6877496 13.8070976,24.6407945 C13.7934379,24.6168189 13.7788534,24.5934124 13.7646245,24.5697925 C13.7473365,24.541406 13.7299062,24.5130906 13.7117644,24.4852732 C13.6943341,24.4584519 13.6764057,24.4321285 13.6580505,24.4059474 C13.6421142,24.3832524 13.625751,24.3609132 13.6092456,24.338645 C13.5884715,24.3105431 13.5676262,24.2825834 13.5458561,24.255264 C13.5330502,24.2392566 13.5196039,24.2238894 13.5065134,24.2082377 C13.4559298,24.1474094 13.4030697,24.0887154 13.3477907,24.0320847 C13.3382573,24.0223379 13.3291509,24.0122354 13.3195464,24.002631 C13.2920847,23.9753116 13.2636982,23.9491305 13.2352405,23.9228783 C13.2188062,23.9077246 13.202443,23.892642 13.185653,23.877844 C13.1584759,23.8539396 13.130872,23.830462 13.1026989,23.8074113 C13.0822093,23.7906212 13.0613641,23.7744715 13.0404477,23.7581795 C13.0143378,23.7380457 12.9884413,23.7176984 12.9616199,23.6983472 C12.9239135,23.6710278 12.8853533,23.6449891 12.8463663,23.6194483 C12.8359793,23.6126184 12.8260902,23.6050772 12.8155609,23.5983896 C13.2529554,22.8594859 14.0536123,22.3897207 14.9382193,22.3897207 C14.99236,22.3897207 15.0511251,22.3922108 15.1231231,22.3974755 C15.3798825,22.4166133 15.6207056,22.2691313 15.7205209,22.0314385 C16.0876962,21.1576455 16.9373002,20.5930451 17.8848699,20.5930451 C19.1016492,20.5930451 20.128758,21.5423933 20.2232375,22.7542636 C20.2462171,23.0488718 20.4802815,23.2829362 20.7749608,23.3059158 C21.6903732,23.3772734 22.4839157,23.9816434 22.7966656,24.8456898 C22.8670272,25.0400557 23.0325086,25.1845496 23.2345581,25.2280898 C24.3418465,25.4667075 25.1632775,26.4189015 25.2555515,27.535154 L16.0706216,27.535154 L16.0706216,27.5349406 Z" id="Shape"></path>
                </g>
            </g>
        </g>
    </g>
</svg>